<svg xmlns="http://www.w3.org/2000/svg" viewBox="0 0 900 900"><g fill="none"><path d="M108.97 403.827s.175 3.344-1.29 3.31c-1.448-.033-30.493-84.916-66.742-80.956 0 0 31.393-12.982 68.03 77.647zM115.2 398.49s-.97 3.206-2.33 2.678c-1.36-.526.195-90.232-35.224-98.837 0 0 33.936-1.525 37.555 96.16zM163.732 473.226s2.89 1.695 2.06 2.895c-.833 1.184-87.652-21.416-104.355 11 0 0 6.498-33.352 102.295-13.894zM158.772 491.253s3.277.706 2.864 2.1c-.41 1.396-89.94 7.293-95.573 43.312 0 0-4.343-33.688 92.71-45.412z" stroke-width=".30369179999999996" stroke="#000" fill="#FFF"/><path d="M151.337 481.507s3.14 1.165 2.528 2.49S63.82 478.098 52.998 512.9c0 0 .618-33.97 98.34-31.393zM132.434 449.354s2.313 2.437 1.183 3.355-78.36-44.736-103.343-18.17c0 0 15.432-30.275 102.16 14.814z" stroke-width=".30369179999999996" stroke="#000" fill="#FFF"/><path d="M119.12 456.752s2.56 2.154 1.555 3.196c-1.024 1.042-82.933-35.574-104.738-6.356 0 0 11.9-31.823 103.184 3.16z" stroke-width=".30369179999999996" stroke="#000" fill="#FFF"/><path d="M114.53 463.956s2.825 1.766 1.96 2.95c-.865 1.164-86.993-23.944-104.614 7.962 0 0 7.45-33.14 102.654-10.912zM133.476 465.033s1.977 2.7.74 3.478c-1.235.76-71.984-54.412-100.164-31.268 0 0 19.193-28.046 99.424 27.79zM98.55 413.918s1.06 3.178-.352 3.53-51.91-73.803-85.81-60.384c0 0 26.838-20.835 86.163 56.854zM99.787 426.24s1.713 2.876.406 3.524c-1.306.65-66.6-60.872-96.81-40.458 0 0 21.717-26.13 96.404 36.934z" stroke-width=".30369179999999996" stroke="#000" fill="#FFF"/><path d="M99.575 433.958s1.978 2.7.742 3.478c-1.236.76-71.985-54.414-100.165-31.275 0 0 19.192-28.04 99.423 27.798z" stroke-width=".30369179999999996" stroke="#000" fill="#FFF"/><path d="M95.673 436.977c.883 10.682 2.63 22.282 5.703 27.79 0 0-6.356 21.895 9.182 45.202 0 0-.707 12.71 2.118 18.36 0 0 7.063 14.833 15.538 16.245 6.85 1.148 22.26 6.57 39.67 9.04 0 0 30.25 24.86 24.6 47.46 0 0-.707 28.958-7.063 31.783 0 0 20.483-19.776 3.532 9.887l-7.768 33.194s45.2-38.138 17.656-5.65l-17.656 45.906s34.606-32.488 21.894-17.656l-5.65 15.537s76.275-48.025 21.894 4.238c0 0 14.125-6.356 21.894-1.413 0 0 12.006-2.118 10.593.707 0 0-36.726 18.36-43.082 50.85 0 0 14.83-17.657 9.18 1.412l.707 20.48s7.063-38.137 6.357 28.252c0 0 33.9-31.782 13.418 4.944v29.662s26.838-28.956 15.538-6.356c0 0 17.657-15.538 10.594 11.3 0 0-1.412 18.363 6.356-1.412 0 0 28.25-54.03 17.657-7.77 0 0-1.413 33.9 7.062 7.77 0 0 .707 18.362 16.95 31.075 0 0-2.118-89.695 20.482-26.132l7.062 28.957s4.944-16.244 4.237-25.425l14.124 14.125s26.838-40.257 21.188-16.95c0 0-13.42 28.25-10.594 36.725 0 0 29.663-61.444 31.782-64.27 0 0-3.53 74.864 15.538 11.3 0 0 9.887 21.19 4.943 28.957 0 0 14.127-14.125 12.714-19.775 0 0 8.122-14.48 13.066 9.534 0 0 3.178 16.597 6.003 10.947 0 0 7.063 42.376 9.18 2.12 0 0 2.826-24.013-9.886-44.495 0 0 1.412-5.65-3.53-12.713 0 0 24.01 38.138 11.3-12.712 0 0 19.776 14.125 21.894 14.125 0 0-24.013-40.963-8.475-32.488 0 0-9.182-18.363 22.602 2.825 0 0-28.252-28.25 2.825-11.3 0 0 14.123 11.3.706-6.356 0 0-25.427-28.25 13.417 3.53 0 0 20.482 28.958 21.894 33.9 0 0-17.657-51.555-25.426-56.5 0 0 14.83-64.27 87.576-36.725 0 0 12.006 30.37 19.775-2.118 0 0 22.6-11.3 42.376 37.432 0 0 7.063-24.013 5.65-28.956 0 0 12.007 2.118 10.595 0 0 0 23.306 7.768 25.425 6.356 0 0 12.006 12.006 12.712 5.65 0 0 16.244 4.944 12.713-1.413 0 0 15.538 27.546 16.244 33.902l4.237-24.72 3.53 4.945s2.826-13.42 1.413-15.538 35.313 12.005 43.788 48.73l3.532 14.832s10.594-26.13 7.77-33.194c0 0 9.18 1.413 9.886 9.18 0 0 7.063-40.962-1.412-51.555 0 0 7.77-1.413 9.887 4.943v-12.712s12.714 1.412 12.714-2.825c0 0 7.77-7.064 11.3 1.41 0 0-21.894-62.15 10.594-28.25 0 0 12.713 19.07 6.356-14.124s-13.42-36.02-4.943-36.726c0 0 1.413-6.356-2.118-9.18s2.12 0 2.12 0 8.474 7.06-.708-31.783c0 0 11.3 2.825-9.887-48.732 0 0 4.943-4.237-2.12-19.07 0 0 14.126 7.77 19.07 4.945 0 0-.706-2.825-6.356-9.887 0 0-38.137-96.758-2.118-57.914 0 0 20.923 23.924 9.623-16.333 0 0-16.086-42.39-14.708-49.976L95.673 436.978z" stroke="#000" fill="#FFF" stroke-width="1.76565"/><path d="M854.107 396.694c1.094.32 4.996 2.304 7.204 5.217 0 0 12.007 19.07 2.826-13.418 0 0-16.244-50.85-.707-31.075 0 0 10.593 12.713 4.943-11.3-6.815-29.005-11.3-40.257-11.3-40.257s20.48 8.475-26.838-61.444l15.538 6.356s-34.607-69.92-72.745-79.1l-14.125-10.595s67.8-67.095 45.2-132.07c0 0-12.006-9.182-28.956 7.062 0 0-11.3 8.474-21.894 5.65 0 0-54.382 2.118-57.913 2.118S630.364-21.844 514.538 9.23c0 0-9.182 3.533-16.95 1.414 0 0-32.49-28.25-118.652 12.006 0 0-17.657 3.532-20.482 3.532s-7.768 0-21.894 11.3-14.83 12.712-18.362 15.537c0 0-28.957 19.775-37.432 21.187 0 0-20.48 11.3-28.25 28.957l-6.357 2.12s-2.826 12.71-3.532 14.83c0 0-8.475 6.356-9.888 16.244 0 0-15.537 10.594-14.83 18.363 0 0-2.826 9.182-4.24 17.657 0 0-12.71 8.475-11.3 13.42 0 0-13.418 24.718-11.3 36.725 0 0-11.3-.707-16.243 3.53 0 0-1.412 8.476-4.237 9.182 0 0-4.944 2.12-.707 9.182 0 0-2.825 4.943-3.53 7.768 0 0 1.412 4.944-6.357 14.832 0 0-11.3 33.194-7.77 42.375 0 0 .707 8.476-4.237 11.3 0 0-6.357-.705 8.475 20.483 0 0 1.412 2.12-4.238 6.356 0 0-30.37 6.356-34.607 35.312 0 0-24.013 26.132-24.013 35.313 0 4.07.477 9.626 1.713 17.763 0 0-1.006 14.725 47.726 16.138s711.06-55.362 711.06-55.362z" stroke="#000" fill="#cc7226" stroke-width="1.76565"/><path d="M120.798 436.165c-44.14-69.567-18.715 30.016-18.715 30.016 15.537 60.74 244.365-5.65 244.365-5.65s298.04-53.675 317.816-60.738 187.865 4.238 187.865 4.238l-9.888-29.663c-114.414-81.926-148.315-40.963-172.328-48.025s-19.775 9.887-25.425 11.3-74.864-42.376-86.164-40.963-56.042-40.525-29.663 15.536c28.25 60.032-103.114 69.214-132.777 49.438s12.713 32.488 12.713 32.488c32.487 35.313-28.252 5.65-28.252 5.65-60.738-22.6-103.113 22.6-108.763 24.013s-14.126 7.063-15.538-4.237-14.673-40.79-70.626 5.65c-35.312 29.31-59.678-9.535-59.678-9.535l-4.944 20.482z" fill="#cc7226"/><path d="M560.64 299.76c-11.302 1.414-56.096-40.5-29.664 15.54 29.31 62.15-103.114 69.213-132.777 49.437-29.665-19.775 12.712 32.488 12.712 32.488 32.488 35.32-28.252 5.65-28.252 5.65-60.74-22.6-103.114 22.6-108.764 24.013s-14.125 7.07-15.538-4.238c-1.412-11.3-14.44-40.493-70.626 5.65-37.495 30.624-61.32-7.254-61.32-7.254l-5.65 17.855c-44.14-70.278-17.532 32.684-17.532 32.684 15.556 60.738 245.53-7.963 245.53-7.963s298.042-53.682 317.817-60.745 186.33 4.11 186.33 4.11l-9.765-30.563c-114.414-81.926-146.902-39.935-170.915-46.998s-19.775 9.888-25.425 11.3-74.863-42.375-86.163-40.963z" fill="#e87f3a"/><path d="M562.952 302.843c-11.3 1.412-54.983-41.015-29.663 15.537 28.602 63.918-103.117 69.215-132.78 49.44s12.713 32.488 12.713 32.488c32.488 35.31-28.25 5.65-28.25 5.65-60.74-22.6-103.116 22.6-108.766 24.013s-14.125 7.06-15.538-4.237c-1.413-11.3-14.21-40.198-70.626 5.65-39.68 31.937-62.96-4.975-62.96-4.975l-6.356 15.213c-42.023-68.856-16.332 35.35-16.332 35.35 15.537 60.737 246.678-10.277 246.678-10.277s298.04-53.672 317.816-60.735 184.775 3.98 184.775 3.98l-9.623-31.46c-114.413-81.926-145.49-38.91-169.502-45.973s-19.775 9.888-25.425 11.302c-5.65 1.413-74.863-42.377-86.163-40.964z" fill="#ea8c4d"/><path d="M565.265 305.925c-11.3 1.413-54.965-41.02-29.663 15.538 29.663 66.31-104.06 68.587-132.78 49.438-29.663-19.774 12.712 32.49 12.712 32.49 32.488 35.317-28.25 5.65-28.25 5.65-60.738-22.6-103.114 22.605-108.764 24.017s-14.125 7.063-15.538-4.243c-1.412-11.3-13.978-39.9-70.627 5.656-41.862 33.247-64.6-2.702-64.6-2.702l-7.062 12.59c-38.492-64.982-15.15 37.996-15.15 37.996 15.538 60.738 247.844-12.57 247.844-12.57s298.04-53.682 317.816-60.745 183.24 3.852 183.24 3.852l-9.5-32.36c-114.414-81.927-144.077-37.88-168.09-44.944s-19.775 9.888-25.425 11.3-74.863-42.375-86.163-40.963z" fill="#ec9961"/><path d="M567.578 309.008c-11.3 1.413-54.082-41.41-29.663 15.538 29.663 69.213-103.12 69.213-132.782 49.438s12.712 32.488 12.712 32.488c32.488 35.307-28.25 5.65-28.25 5.65-60.738-22.6-103.114 22.595-108.764 24.007s-14.124 7.062-15.536-4.238c-1.413-11.295-13.746-39.6-70.626 5.65-44.046 34.57-66.224-.406-66.224-.406l-7.77 9.94c-34.96-61.44-13.965 40.68-13.965 40.68 15.536 60.74 248.99-14.9 248.99-14.9s298.04-53.67 317.816-60.734 181.703 3.724 181.703 3.724l-9.377-33.26C731.43 300.66 703.18 345.734 679.166 338.67s-19.775 9.89-25.425 11.3-74.862-42.374-86.162-40.962z" fill="#eea575"/><path d="M569.89 312.09c-11.3 1.412-57.153-39.994-29.662 15.537 33.9 68.507-103.12 69.213-132.784 49.438s12.713 32.488 12.713 32.488c32.488 35.316-28.25 5.65-28.25 5.65-60.74-22.6-103.114 22.604-108.764 24.016s-14.126 7.062-15.538-4.238c-1.413-11.304-13.514-39.312-70.626 5.65-46.23 35.895-67.865 1.854-67.865 1.854l-8.475 7.327c-31.782-58.623-12.784 43.33-12.784 43.33 15.538 60.737 250.157-17.198 250.157-17.198s298.04-53.68 317.816-60.742 180.148 3.595 180.148 3.595l-9.234-34.157c-114.414-81.925-141.252-35.825-165.265-42.888s-19.776 9.888-25.426 11.3-74.863-42.375-86.163-40.963z" fill="#f1b288"/><path d="M572.204 315.17c-11.3 1.413-57.825-39.656-29.663 15.538 36.02 70.628-103.122 69.215-132.785 49.44s12.713 32.488 12.713 32.488c32.488 35.306-28.25 5.65-28.25 5.65-60.74-22.6-103.114 22.593-108.764 24.006s-14.125 7.062-15.538-4.238c-1.412-11.293-13.283-39.007-70.626 5.65-48.412 37.22-69.504 4.15-69.504 4.15l-9.182 4.678c-28.25-53.315-11.582 46.013-11.582 46.013 15.537 60.738 251.286-19.528 251.286-19.528s298.04-53.67 317.817-60.73 178.612 3.465 178.612 3.465l-9.11-35.055c-114.414-81.926-139.84-34.8-163.852-41.862-24.013-7.064-19.775 9.888-25.426 11.3s-74.864-42.377-86.164-40.965z" fill="#f3bf9c"/><path d="M574.5 318.253c-11.3 1.413-59.75-38.623-29.664 15.538 38.844 69.92-103.107 69.214-132.77 49.44s12.713 32.487 12.713 32.487c32.487 35.314-28.25 5.65-28.25 5.65-60.74-22.6-103.115 22.602-108.765 24.014s-14.125 7.064-15.538-4.236c-1.412-11.302-13.05-38.717-70.626 5.65-50.593 38.526-71.143 6.427-71.143 6.427l-9.888 2.05c-25.426-50.147-10.4 48.66-10.4 48.66 15.537 60.738 252.45-21.823 252.45-21.823s298.042-53.678 317.818-60.74 177.094 3.34 177.094 3.34l-9.005-35.957c-114.414-81.926-138.426-33.77-162.44-40.834s-19.774 9.888-25.425 11.3S585.8 316.84 574.5 318.253z" fill="#f5ccb0"/><path d="M576.812 321.336c-11.3 1.412-59.75-38.625-29.663 15.538 38.843 69.92-103.108 69.213-132.77 49.438s12.712 32.488 12.712 32.488c32.488 35.304-28.25 5.65-28.25 5.65-60.74-22.6-103.116 22.59-108.766 24.004s-14.125 7.062-15.537-4.238-12.818-38.412-70.627 5.65c-52.777 39.85-72.768 8.705-72.768 8.705l-10.594-.582c-24.03-46.606-9.215 51.345-9.215 51.345 15.537 60.738 253.6-24.154 253.6-24.154s298.04-53.668 317.816-60.73 175.54 3.21 175.54 3.21l-8.845-36.855C735.015 308.88 712.415 358.06 688.4 351s-19.774 9.886-25.425 11.3-74.863-42.377-86.163-40.964z" fill="#f8d8c4"/><path d="M579.125 324.417c-11.3 1.412-59.06-38.998-29.663 15.538 38.844 72.038-103.108 69.213-132.77 49.438s12.71 32.488 12.71 32.488c32.49 35.314-28.25 5.65-28.25 5.65-60.737-22.6-103.113 22.6-108.763 24.014-5.653 1.412-14.128 7.062-15.54-4.238s-12.586-38.124-70.626 5.65c-54.96 41.157-74.408 10.982-74.408 10.982l-11.3-3.213c-22.953-42.376-8.034 53.993-8.034 53.993 15.538 60.74 254.765-26.45 254.765-26.45s298.04-53.675 317.817-60.737 174.004 3.084 174.004 3.084l-8.74-37.754c-114.414-81.927-135.6-31.718-159.614-38.78s-19.775 9.887-25.426 11.3-74.863-42.376-86.163-40.963z" fill="#fae5d7"/><path d="M581.438 327.498c-11.3 1.413-57.154-39.98-29.663 15.538 37.432 75.57-103.11 69.215-132.773 49.44s12.713 32.487 12.713 32.487c32.488 35.32-28.25 5.65-28.25 5.65-60.74-22.6-103.114 22.608-108.765 24.02s-14.125 7.063-15.537-4.237-12.354-37.834-70.626 5.65c-57.145 42.464-76.05 13.242-76.05 13.242l-12.006-5.826c-22.6-40.97-6.832 56.66-6.832 56.66 15.537 60.737 255.912-28.763 255.912-28.763s298.04-53.677 317.817-60.746c19.775-7.063 172.45 2.955 172.45 2.955l-8.598-38.656c-114.415-81.926-134.19-30.69-158.203-37.75-24.013-7.066-19.775 9.886-25.426 11.3s-74.862-42.378-86.162-40.966z" fill="#fcf2eb"/><path d="M120.445 466.18c-22.6-38.844-5.65 59.326-5.65 59.326 15.538 60.74 257.078-31.075 257.078-31.075s298.04-53.675 317.817-60.737 170.914 2.825 170.914 2.825l-8.475-39.55c-114.415-81.927-132.777-29.663-156.79-36.726s-19.775 9.888-25.426 11.3-74.863-42.375-86.163-40.963-55.83-40.623-29.662 15.537c39.25 84.233-107.28 66.436-132.777 49.438-29.66-19.775 12.714 32.488 12.714 32.488 32.488 35.313-28.25 5.65-28.25 5.65-60.738-22.6-103.114 22.6-108.764 24.013s-14.125 7.062-15.538-4.238-12.12-37.53-70.626 5.65c-59.325 43.788-77.688 15.538-77.688 15.538l-12.713-8.475z" fill="#FFF"/><path d="M193.896 519.15s-12.712 20.482 24.013 43.788c0 0 2.47 2.472-29.31-4.944 0 0-10.948-3.53-13.773-21.894 0 0-8.475-7.77-16.95-17.656s36.02.706 36.02.706z" fill="#000"/><path d="M441.087 435.105s31.248 47.355 30.192 55.795c-2.296 18.362-2.65 35.313 3 42.375 5.653 7.063 21.19 65.682 21.19 65.682s-.706 2.12 21.186-64.975c0 0 20.482-28.25-14.83-60.74 0 0-62.152-50.85-60.74-38.137z" fill="#CCC"/><path d="M229.21 566.47s19.774 12.712-5.65 67.8l11.3-4.237s-1.413 19.775-7.063 24.012l12.712-5.65s8.474 14.126 1.412 22.6c0 0 29.663 14.126 28.25 25.426 0 0 11.3-14.124 4.238-25.424s-19.776-4.238-18.363-36.726l-15.538 5.65s9.887-15.537 9.887-26.838l-14.125 4.238s27.312-46.93 8.475-49.438c-10.594-1.413-15.538-1.413-15.538-1.413z" fill="#000"/><path d="M286.416 596.132s4.944-7.77 0-6.356-60.032 27.544-70.626 44.494c0 0 60.738-43.082 70.626-38.138zM304.78 610.257s4.943-7.768 0-6.356-60.033 27.545-70.627 44.495c0 0 60.738-43.08 70.626-38.138zM328.085 583.42s4.944-7.77 0-6.357-60.032 27.544-70.626 44.495c0 0 60.738-43.082 70.625-38.138zM287.122 660.402s0-10.594-4.943-9.182-68.51 32.488-79.102 49.44c0 0 74.157-45.202 84.044-40.258zM289.24 641.333s2.12-8.475-2.824-7.063c-3.53 0-50.144 20.482-60.738 37.432 0 0 52.263-38.138 63.563-30.37zM263.816 725.378l-17.657 13.42s18.362-13.42 24.718-11.302c0 0-12.006 19.776-13.42 28.957 0 0 18.364-22.6 28.252-21.894 0 0 13.42.705 13.42 19.774 0 0 9.886-18.363 15.536-17.656 0 0 2.12 11.3 0 23.306 0 0 7.063-13.42 14.126-10.594 0 0 11.3-3.53 9.887 16.95 0 0 0 18.363-1.413 23.307 0 0 9.887-46.613 14.125-47.32 0 0 14.125-2.118 22.6 13.42 0 0-7.062-13.42 1.413-9.888 0 0 19.07 2.824 24.72 14.83 0 0-12.008-21.187-2.12-15.537l14.125 11.3s14.832 37.432 18.363 40.257c0 0-13.42-38.138-10.594-38.138 0 0-3.532-21.188 5.65 4.944 0 0-5.65-24.72 4.237-23.307s17.656 19.068 32.487 14.83c0 0 16.952 9.888 20.484-112.295l-218.94 82.633z" fill="#CCC"/><path d="M272.29 561.526s26.132-10.594 96.758 0c0 0 12.713.706 24.72-14.832s59.325-28.25 70.625-24.72l16.952 11.3 1.413 2.12s21.892 18.363 22.598 31.782-25.423 98.17-42.375 126.42c-16.95 28.25-33.9 50.144-67.8 45.907 0 0-36.726-7.063-81.926 0 0 0-51.557-2.825-56.5-16.95s19.774-40.963 19.774-40.963 7.77-14.832 5.65-40.257-1.412-74.864-9.887-79.807z" fill="#000"/><path d="M311.135 565.057c14.832 32.488-37.432 147.608-37.432 147.608-3.53 2.825 22.353 13.507 40.257 9.18 19.327-4.66 90.4 2.826 90.4 2.826 41.67-27.543 64.27-105.937 64.27-105.937s18.365-42.376-12.712-48.026c-31.075-5.65-144.783-5.65-144.783-5.65z" fill="#e5668c"/><path d="M307.55 619.615c5.872-22.582 8.668-43.417 3.585-54.558 0 0 110.176 11.3 129.952-25.425 7.488-13.896 33.55 40.256 32.84 57.207 0 0-111.235 25.424-137.367 5.65l-29.01 17.125z" fill="#b23259"/><path d="M315.373 648.395s3.53 12.713-.707 19.776c0 0-2.825 1.413-4.943 2.12 0 0 2.118 6.356 12.712 9.18 0 0 3.532 7.77 7.77 8.476s12.712 10.594 19.774 8.475 26.837-9.18 26.837-9.18 9.888-5.65 25.425.706c0 0 4.194-1.413 4.944-8.475.883-8.298 6.357-14.83 9.888-18.362s20.48-26.13 18.363-26.838-120.064 14.125-120.064 14.125z" fill="#a5264c"/><path d="M307.604 562.938s-4.944 39.55.706 54.382 4.238 18.363 2.825 25.425 6.356 24.72 16.244 35.313l21.187 2.825s26.838-6.356 43.082-1.412c0 0 15.88 2.367 21.893-24.012 0 0 8.475-11.3 21.187-16.244s25.426-78.395 18.363-92.52-32.488-21.894-60.738 5.65-31.782-2.12-84.75 10.594z" stroke="#000" fill="#ff727f" stroke-width="1.76565"/><path d="M310.43 695.008s-1.414-3.53-9.183-4.237c0 0-39.55-6.355-54.38-28.25 0 0-12.008-9.887-4.24 10.594 0 0 18.364 36.02 30.37 40.963 0 0 28.957 7.063 37.432-19.07z" stroke-width=".882825" stroke="#000" fill="#FFC"/><path d="M451.578 582.06c1.164-13.966 4.612-29.168 1.515-35.366-11.38-22.76-41.35-13.242-60.738 5.65-28.25 27.544-31.782-2.12-84.75 10.594 0 0-3.082 24.65-1.6 42.34 0 0 65.868-20.446 67.28-10.558 0 0 2.826-5.65 19.07-5.65s56.398-2.066 59.223-7.01z" fill="#cc3f4c"/><path d="M375.405 564.35s8.475 8.476 2.118 25.426c0 0-25.425 28.25-21.894 52.97" stroke-width="3.5313" stroke="#a51926"/><path d="M290.654 714.077s-7.77-22.6 7.768-10.593l6.357 6.356c-2.12 2.825-12.008 9.888-14.126 4.237z" stroke-width=".882825" stroke="#000" fill="#FFC"/><path d="M299.552 716.196s-6.215-18.08 6.216-8.475l5.085 5.086c-8.052 2.26 0 6.78-11.3 3.39z" stroke-width=".882825" stroke="#000" fill="#FFC"/><path d="M308.028 716.196s-6.215-18.08 6.215-8.475l5.085 5.086c-5.933 2.26 0 6.78-11.3 3.39z" stroke-width=".882825" stroke="#000" fill="#FFC"/><path d="M319.68 716.55s-6.214-18.08 6.216-8.476c0 0 7.74 4.114 5.087 5.085-5.228 1.906 0 6.78-11.302 3.39z" stroke-width=".882825" stroke="#000" fill="#FFC"/><path d="M331.122 716.408s-6.215-18.08 6.217-8.475l5.084 5.085c-1.695 2.26 0 6.78-11.302 3.39z" stroke-width=".882825" stroke="#000" fill="#FFC"/><path d="M342.917 717.61s-8.475-21.895 7.77-10.595l6.355 6.356c-2.12 2.826 0 8.476-14.125 4.24z" stroke-width=".882825" stroke="#000" fill="#FFC"/><path d="M292.772 687.24s23.307-4.944 33.9.706c0 0 10.595 2.12 12.713 1.412s7.77-1.412 7.77-1.412M352.804 702.777s21.188-24.012 42.376-16.244c12.388 4.538 10.594-1.412 12.006-6.356s1.766-12.36 10.594-17.656" stroke-width="3.5313" stroke="#a5264c"/><path d="M383.173 674.527s-7.062-19.07-12.006 3.53-10.594 28.958-13.42 33.902c0 0 0 9.18 14.833 8.474 0 0 19.07-.706 19.775-5.65s-2.12-25.426-9.182-40.257z" stroke-width=".882825" stroke="#000" fill="#FFC"/><path d="M407.893 687.24s6.356-4.238 10.593-2.12M419.37 658.283s5.12-8.652 13.595-10.064" stroke-width="3.5313" stroke="#a5264c"/><path d="M279.353 723.26s31.782 5.65 39.55 2.824l.707 3.53-36.725-2.118s-20.482-9.887-3.532-4.237z" fill="#b2b2b2"/><path d="M304.073 558.7l34.606 1.413s12.712 54.382 6.356 67.8c0 0-2.12 4.945-7.063-4.943 0 0-32.488-57.913-38.138-61.444s2.12-2.825 4.238-2.825zM167.94 553.933s15.715 3.002 37.963 7.593c0 0 8.475 39.55 14.125 48.025s-.706 8.476-7.063 3.532-32.488-29.662-36.02-37.43-9.004-21.72-9.004-21.72z" stroke-width=".882825" stroke="#000" fill="#FFC"/><path d="M206.54 561.914s10.24 2.737 12.022 6.64c1.78 3.92-2.122 9.728-2.122 9.728s-1.766 5.844-3.888 2.03c-2.122-3.83-7.193-17.356-6.012-18.398z" stroke-width=".882825" stroke="#000" fill="#FFC"/><path d="M206.61 561.526s6.355 9.18 12.712 9.18 7.03-.723 12.006.354c8.122 1.766 7.416-1.766 19.07.353 4.66.848 9.18-.706 14.124 1.413s10.594.706 12.713-2.825 10.594-10.946 10.594-10.946-22.602 3.178-27.545 4.59c0 0-39.55 2.12-53.676-2.118z" fill="#000"/><path d="M285.357 561.88s-11.39 6.18-12.095 10.416 9.27 10.77 9.27 10.77 4.855 8.122 5.915 3.885-1.678-24.365-3.09-25.07zM219.17 571.52s12.373 19.757 12.756-.036c0 0 .984-2.225-2.124-2.26-10.726-.124-8.04-7.38-10.63 2.295z" stroke-width=".882825" stroke="#000" fill="#FFC"/><path d="M231.845 571.96s13.986 19.758 12.863-.158c0 0 .012-.583-3.083-.848-8.38-.74-7.772-8.722-9.78 1.007z" stroke-width=".882825" stroke="#000" fill="#FFC"/><path d="M244.58 571.978s14.055 18.77 12.874 1.695c0 0 .21-2.17-2.71-2.7-6.872-1.255-7.245-6.975-10.163 1.005z" stroke-width=".882825" stroke="#000" fill="#FFC"/><path d="M256.72 572.12s13.95 20.41 14.564 3.142c0 0 2.903-2.436-.18-2.825-10.272-1.306-8.863-9.163-14.383-.318z" stroke-width=".882825" stroke="#000" fill="#FFC"/><path d="M192.85 578.352l-13.52-2.7c-4.59-8.83-8.3-19.688-8.3-19.688s11.213 1.765 33.284 6.71c0 0 1.546 5.86 4.145 16.084l-15.61-.406zM307.738 570.124c-2.942-4.43-5.267-7.52-6.415-8.245-5.32-3.32 1.996-2.667 3.99-2.667l32.582 1.342s.925 3.955 2.133 9.94c0 0-17.812-3.55-32.29-.37z" fill="#e5e5b2"/><path d="M402.384 326.202c48.945 6.992 94.004-55.936 97.112-73.03 3.106-17.09-14.76-38.066-14.76-38.066 2.33-5.438-6.216-30.3-15.538-46.613s-37.4-14.595-68.368-16.315c-27.968-1.554-60.597 39.62-62.928 42.73s8.546 70.697 10.877 80.797-2.332 56.712-2.332 56.712c60.456-16.067 6.992-13.207 55.936-6.215z" fill="#cc7226"/><path d="M339.188 196.05c-2.29 3.052 8.39 69.414 10.678 79.33s-2.288 55.68-2.288 55.68c57.687-15.678 6.865-12.966 54.92-6.1 48.054 6.864 92.294-54.92 95.345-71.702 3.05-16.78-14.492-37.375-14.492-37.375 2.29-5.34-6.1-29.748-15.254-45.766S431.38 155.79 400.97 154.1c-27.458-1.526-59.494 38.9-61.782 41.95z" fill="#ea8e51"/><path d="M340.473 197.195c-2.246 2.995 8.235 68.128 10.48 77.86s-2.245 54.65-2.245 54.65c55.448-16.173 6.738-12.727 53.902-5.99 47.165 6.74 90.586-53.9 93.58-70.372 2.995-16.47-14.223-36.683-14.223-36.683 2.246-5.24-5.99-29.197-14.973-44.918s-36.037-14.064-65.882-15.722c-26.95-1.497-58.393 38.18-60.64 41.175z" fill="#efaa7c"/><path d="M341.758 198.34c-2.203 2.937 8.08 66.84 10.284 76.39s-2.204 53.62-2.204 53.62c51.974-15.962 6.61-12.488 52.885-5.877 46.276 6.61 88.877-52.885 91.815-69.044 2.938-16.162-13.956-35.994-13.956-35.994 2.204-5.14-5.876-28.645-14.69-44.07s-35.357-13.8-64.638-15.425c-26.443-1.468-57.292 37.46-59.496 40.4z" fill="#f4c6a8"/><path d="M343.044 199.483c-2.16 2.882 7.924 65.557 10.085 74.922s-2.162 52.588-2.162 52.588c49.205-15.75 6.484-12.246 51.868-5.763 45.386 6.483 87.168-51.868 90.05-67.718 2.88-15.848-13.688-35.3-13.688-35.3 2.16-5.04-5.763-28.094-14.408-43.222s-34.677-13.533-63.395-15.128c-25.934-1.44-56.19 36.74-58.35 39.62z" fill="#f9e2d3"/><path d="M402.95 319.985c44.493 6.357 85.458-50.85 88.283-66.388s-13.42-34.607-13.42-34.607c2.12-4.944-5.65-27.544-14.126-42.375s-33.996-13.267-62.15-14.832c-25.426-1.412-55.09 36.02-57.208 38.845s7.768 64.27 9.887 73.45-2.12 51.557-2.12 51.557c45.025-15.184 6.357-12.006 50.852-5.65z" fill="#FFF"/><path d="M484.876 259.953s-49.086 13.42-69.568 10.594c0 0-27.897-11.653-43.435 26.838 0 0-6.356 12.713-9.887 16.244s122.89-53.677 122.89-53.677z" fill="#CCC"/><path d="M491.586 256.07s-51.206 21.54-68.862 20.833c0 0-28.957-8.122-43.788 17.657 0 0-14.83 16.244-20.482 19.07 0 0-.706 2.824 10.594-4.24l18.363 9.183s26.133 16.95 43.083-11.3c0 0 7.062-19.776 7.062-23.307s37.432-13.42 40.26-14.125c2.824-.705 14.477-8.12 13.77-13.77z" fill="#000"/><path d="M407.893 319.48c-12.134 0-26.918-6.824-26.918-17.858 0-11.03 14.784-22.093 26.918-22.093 12.137 0 21.975 8.942 21.975 19.974 0 11.033-9.838 19.976-21.975 19.976z" fill="#99cc32"/><path d="M401.496 290.022c-8.557 1.275-17.542 3.93-17.415 3.547 2.72-8.156 13.95-14.04 23.813-14.04 7.585 0 14.273 3.49 18.22 8.806 0 0-9.385-.583-24.617 1.686z" fill="#659900"/><path d="M422.724 289.616s-7.77-5.65-7.77-1.766c0 0 6.357 7.77 7.77 1.766z" fill="#FFF"/><path d="M405.068 303.964a7.99 7.99 0 0 1-7.99-7.992 7.99 7.99 0 0 1 7.99-7.99 7.99 7.99 0 0 1 0 15.982z" fill="#000"/><path d="M221.44 280.435s-5.65-37.432-1.412-45.2c0 0 19.07-17.657 18.362-24.014 0 0-.706-31.78-2.825-33.193s-15.537-12.006-26.13-.706c0 0-18.364 31.783-16.95 43.083v3.53s-13.42-.705-16.245 2.826c0 0-2.12 9.18-4.238 9.887 0 0-4.944 4.237-1.412 9.18 0 0-3.532 4.24-2.825 11.3l13.42 7.064s3.53 25.426 22.6 34.607c8.537 4.113 14.124-7.768 17.655-18.362z" fill="#cc7226"/><path d="M219.675 277.186s-5.085-33.69-1.272-40.68c0 0 17.162-15.89 16.527-21.612 0 0-.636-28.604-2.543-29.875s-13.984-10.807-23.518-.636c0 0-16.528 28.603-15.256 38.773v3.178s-12.077-.635-14.62 2.543c0 0-1.907 8.263-3.814 8.9 0 0-4.45 3.813-1.27 8.262 0 0-3.18 3.814-2.543 10.17l12.077 6.356s3.178 22.883 20.34 31.146c7.684 3.7 12.712-6.992 15.89-16.526z" fill="#FFF"/><path d="M234.77 179.775c-1.924-1.518-15.148-11.706-25.477-.688 0 0-17.904 30.987-16.527 42.004v3.444s-13.083-.688-15.838 2.755c0 0-2.065 8.95-4.13 9.64 0 0-4.82 4.13-1.378 8.95 0 0-3.443 4.133-2.755 11.02l13.084 6.885s3.442 24.79 22.034 33.74c8.323 4.01 13.772-7.573 17.215-17.902 0 0-5.51-36.496-1.378-44.07 0 0 18.592-17.216 17.903-23.413 0 0-.688-30.988-2.754-32.365z" fill="#eb955c"/><path d="M233.976 181.523c-1.73-1.624-14.76-11.406-24.825-.67 0 0-17.443 30.192-16.1 40.927v3.355s-12.75-.67-15.433 2.683c0 0-2.013 8.723-4.026 9.394 0 0-4.695 4.025-1.34 8.722 0 0-3.355 4.026-2.684 10.735l12.748 6.71s3.354 24.153 21.47 32.875c8.11 3.906 13.42-7.38 16.773-17.445 0 0-5.367-35.56-1.34-42.94 0 0 18.114-16.774 17.443-22.812 0 0-.67-30.193-2.684-31.535z" fill="#f2b892"/><path d="M233.182 183.27c-1.536-1.73-14.373-11.105-24.172-.652 0 0-16.985 29.398-15.68 39.85v3.267s-12.41-.653-15.024 2.613c0 0-1.96 8.493-3.92 9.146 0 0-4.573 3.92-1.307 8.493 0 0-3.267 3.92-2.614 10.453l12.413 6.532s3.265 23.52 20.904 32.012c7.898 3.803 13.066-7.187 16.332-16.986 0 0-5.226-34.624-1.307-41.81 0 0 17.638-16.333 16.985-22.212 0 0-.653-29.398-2.613-30.705z" fill="#f8dcc8"/><path d="M219.675 277.01s-5.085-33.513-1.272-40.505c0 0 17.162-15.89 16.527-21.61 0 0-.636-28.605-2.543-29.876-1.342-1.837-13.984-10.807-23.518-.636 0 0-16.528 28.603-15.256 38.773v3.178s-12.077-.635-14.62 2.543c0 0-1.907 8.263-3.814 8.9 0 0-4.45 3.813-1.27 8.262 0 0-3.18 3.814-2.543 10.17l12.077 6.356s3.178 22.883 20.34 31.146c7.684 3.7 12.712-7.168 15.89-16.703z" fill="#FFF"/><path d="M214.2 265.956s-38.137-18.01-39.726-19.422c0 0 16.067 14.48 17.48 14.48s22.247 4.942 22.247 4.942z" fill="#CCC"/><path d="M184.01 255.01s32.486 6.356 32.486 14.125c0 5.14-.43 28.834-9.887 26.13-14.833-4.236-8.476-29.662-22.6-40.256z" fill="#000"/><path d="M198.84 261.72s15.852 2.6 17.656 7.415c1.06 2.825 2.23 17.494-7.415 19.422-8.036 1.608-11.974-16.438-10.24-26.838z" fill="#99cc32"/><path d="M350.677 336.845c-.878-3.075 1.437-2.844 4.6-3.794 3.53-1.058 25.07-7.768 26.484-12.36s24.72 3.18 24.72 3.18c3.178 1.412 10.947 6.003 10.947 6.003 8.475 2.12 20.128 2.825 20.128 2.825 4.238 1.766 10.24 6.71 10.24 6.71 25.78 18.01 47.675 5.296 47.675 5.296 35.312-11.653 24.718-42.022 24.718-42.022-5.297-15.89.353-21.894.353-21.894.354-6.71 13.067 4.59 13.067 4.59 4.59 7.416 6.003 16.244 6.003 16.244 14.125 19.776 8.122-11.653 8.122-11.653.353-1.766-4.59-8.123-4.59-10.242s-3.18-8.122-3.18-8.122c-5.296-6.003-1.06-18.362-1.06-18.362 3.18-24.366-.705-21.188-.705-21.188-2.12-3.178-18.362 14.478-18.362 14.478-3.885 6.004-14.48 8.83-14.48 8.83-4.94 3.177-10.944.705-10.944.705-4.59-.707-14.477 11.652-14.477 11.652 4.943-.353 9.18 7.416 13.42 7.77s7.414-4.24 10.238-5.298c2.826-1.06 7.77 9.18 7.77 9.18.706 4.592-9.182 13.067-9.182 13.067-.706 8.123-3.53 5.298-3.53 5.298-5.296-1.06-7.415 5.65-9.18 13.772s-9.182 8.828-9.182 8.828c-2.825 13.066-4.946 7.77-4.946 7.77-.353-9.888-10.947.352-10.947.352-2.12 3.532-10.24-.353-10.24-.353-12.007-3.53-7.77-7.062-7.77-7.062 3.18-3.885 22.954 0 22.954 0 3.884-2.825-10.24-9.888-10.24-9.888-1.06-3.178.706-10.947.706-10.947 2.118-5.65 14.125-15.538 14.125-15.538 16.6-2.118 11.655-4.944 11.655-4.944-10.947-9.18-21.19 4.238-21.19 4.238-3.884 10.947-34.606 37.432-34.606 37.432-8.476 6.003-3.885-6.003-10.947 0s-43.435-9.888-43.435-9.888c-20.415-2.106-25.24 25.688-31.47 20.18 0 0 9.567 15.043 6.742 5.155zM694.633 43.132s-45.2 14.125-50.144 47.32c0 0-4.238 40.256 31.78 71.33 0 0 .707 11.3 4.238 16.95 0 0-2.825 8.477 30.37-4.942l48.025-14.832s11.3-4.237 20.482-19.775 36.02-48.732 29.662-93.226c0 0 2.12-19.775-8.475-20.482 0 0-14.83-2.825-27.544 10.594 0 0-12.006 5.65-16.244 4.943l-62.15 2.12z" fill="#000"/><path d="M791.073 41.384s3.708-15.767-4.838-7.222c0 0-12.43 10.1-25.637 10.1 0 0-25.637 3.884-33.406 27.19 0 0-6.992 47.39 6.992 57.49 0 0 8.546 13.207 20.976 1.554s39.798-65.03 35.913-89.112z" fill="#000"/><path d="M790.42 42.02s3.69-15.45-4.697-7.045c0 0-12.218 9.905-25.178 9.905 0 0-25.178 3.814-32.806 26.696 0 0-6.87 46.532 6.868 56.448 0 0 8.387 12.967 20.587 1.526 12.218-11.442 39.04-63.888 35.225-87.53z" fill="#323232"/><path d="M789.75 42.655s3.67-15.114-4.557-6.886c0 0-11.97 9.728-24.7 9.728 0 0-24.72 3.743-32.206 26.202 0 0-6.727 45.674 6.744 55.406 0 0 8.23 12.727 20.218 1.497 11.97-11.23 38.244-62.747 34.5-85.948z" fill="#666"/><path d="M789.096 43.273s3.654-14.778-4.432-6.692c0 0-11.742 9.553-24.243 9.553 0 0-24.223 3.673-31.568 25.708 0 0-6.62 44.8 6.603 54.348 0 0 8.087 12.487 19.828 1.47 11.76-11.02 37.485-61.608 33.813-84.385z" fill="#999"/><path d="M788.442 43.91s3.638-14.444-4.29-6.534c0 0-11.53 9.375-23.783 9.375 0 0-23.767 3.603-30.97 25.215 0 0-6.48 43.94 6.48 53.305 0 0 7.927 12.246 19.456 1.44 11.512-10.805 36.708-60.466 33.106-82.8z" fill="#CCC"/><path d="M787.77 44.544s3.62-14.125-4.148-6.356c0 0-11.3 9.18-23.306 9.18 0 0-23.307 3.533-30.37 24.72 0 0-6.356 43.082 6.357 52.264 0 0 7.77 12.006 19.07 1.412s35.93-59.326 32.398-81.22z" fill="#FFF"/><path d="M414.25 403.324s-36.02-33.9-50.145-35.313c0 0-60.74-7.062-86.87 24.72 0 0 31.075-36.02 79.807-26.132 0 0-38.138-7.77-60.032-2.12l-46.613 24.72-4.944 8.476s7.063-26.132 39.55-36.726c0 0 40.257-8.475 59.326 0 0 0-38.14-12.006-55.795-8.475 0 0-53.676-4.237-76.276 42.376 0 0 7.062-25.427 33.193-38.14 0 0 24.013-15.537 60.032-10.593 0 0 25.425 5.65 34.607 9.887s7.062-.706-7.77-9.18c0 0-9.887-17.657-34.606-16.95 0 0-75.57 6.355-93.932 27.543 0 0 24.013-19.775 42.375-24.72 0 0 39.55-14.124 54.38-12.712 0 0 43.79 1.766 57.208-5.297 0 0-19.775 8.828-14.125 14.48s17.656 19.068 17.656 21.186 42.728 41.14 49.084 48.91l3.885 4.06z" fill="#992600"/><path d="M658.614 745.86s-27.367-64.447-49.438-81.22c0 0 45.907 28.25 52.087 60.03 0 0 0 17.658-2.65 21.19zM741.6 759.1s-46.79-97.11-79.454-139.485c0 0 76.805 66.212 85.633 113.002l.882 9.71-5.297-4.413s-.882 15.89-1.765 21.187zM841.36 673.468s-110.354-105.056-113.003-109.47c0 0 106.822 116.532 112.12 129.775 0 0-3.532-15.89.882-20.305zM508.534 750.273s34.43-91.813 67.978-52.086c0 0 26.484 17.656 25.602 22.953 0 0-7.063-11.477-38.845-10.594 0 0-33.548-5.297-54.736 39.727zM844.89 525.153s-79.454-50.32-92.696-52.97c-20.853-4.166 87.4 51.205 96.227 69.744 0 0 3.533-4.414-3.53-16.774z" fill="#CCC"/><path d="M578.807 713.37s36.02-3.53 48.026-15.536l7.77 6.356 31.074-67.8 6.356 9.18s25.426-26.13 24.013-40.256 22.6 10.594 22.6 10.594-1.412-20.482 11.3-8.476c0 0-4.237-27.544 10.594-13.418 0 0-18.61-53.252 21.188-7.77 9.888 11.3 2.12-.706 2.12-.706s-45.908-84.75-7.77-59.325c0 0 3.53-40.257 1.413-48.026s-5.65-47.32-14.125-56.5.707-12.007 10.594-2.826c0 0-19.776-42.374 3.53-21.186 0 0-6.356-26.838-14.125-31.782 0 0-9.887-30.37 16.95-11.3 0 0-7.768-21.894-13.418-27.544 0 0-20.482-48.732-7.77-40.257l7.77 6.357s-12.007-24.72-.707-16.95 11.3 7.063 11.3 7.063-37.43-58.62-1.412-27.544c0 0-14.408-24.575-20.482-36.726 0 0-33.194-36.02-7.768-24.72l8.475 2.826s-15.538-17.656-29.663-20.48 4.237-14.126 15.538-10.595 38.844 16.95 38.844 16.95 22.6 33.195 29.663 33.9c0 0-35.313-13.417-24.72.708 0 0 25.426 24.72 12.713 24.013 0 0-10.594 12.713-2.12 28.25 0 0-32.592-32.47-6.355 12.714l12.007 28.956s-43.082-43.788-23.307-4.944c0 0 30.37 41.67 33.9 42.376s11.3 16.244 11.3 16.244l-7.768-3.532 9.18 15.538s-19.774-21.188-9.18 2.12l9.887 25.424s-36.02-38.844-12.006 13.42c0 0-28.957-9.182-13.42 21.187 0 0-2.824 28.25-2.118 37.432s2.825 59.325-4.944 73.45 10.594 48.026 14.126 55.09 9.887 26.13-5.65 9.886-7.77-6.355-4.238 9.183 14.125 43.08 12.713 52.97c0 0-2.12 2.118-7.77-4.24 0 0-26.13-40.255-23.306-14.83 0 0-2.12 14.125-7.77 29.663 0 0-5.65 19.07-5.65 3.53 0 0-5.65-29.662-10.594-16.243s-11.3 24.013-16.243 28.25-14.126-36.02-16.244-17.656c0 0-21.19-21.894-29.664 7.063l-20.482 28.956s-.706-21.894-2.825-11.3c0 0-52.97 10.594-71.333 2.825zM518.07 83.39s-20.48-14.127-27.543-13.42S539.257 54.432 612 103.164c0 0 8.476 4.944 14.833 4.237 0 0 5.65 4.24.706 10.595 0 0-15.54 16.95 4.236 36.726 0 0 32.488 12.007 22.6-3.53 0 0 19.07 7.062 23.307 14.125s2.12 0 2.12 0l-21.895-21.894s-9.18-3.53-14.125-18.362-9.18-32.488-1.413-38.138c0 0-7.062 7.77-5.65.706s7.77-13.42 10.594-14.125 31.782-28.602 43.788-29.31c0 0-16.244 2.473-21.54.708s-52.264-21.895-62.858-24.013c0 0-29.663-11.654-8.475-8.122 0 0 63.21 6.71 95.344 30.016 0 0-12.713-14.833-45.2-27.192 0 0-39.198-22.247-101.35-13.42 0 0-31.427 5.65-45.2 8.83 0 0-4.588-1.06-5.647-1.767S474.28-7.365 425.55 4.995c0 0-30.017 8.122-45.202 16.597 0 0-26.837 2.12-33.194 7.77 0 0-32.84 25.778-36.372 27.19s-23.66 14.832-25.072 15.538c0 0 43.435-11.653 47.672-15.89s34.96-8.83 39.198-6.357 19.07 1.414 2.118 2.473c0 0 133.483 26.132 134.896 29.663s8.475 1.413 8.475 1.413z" fill="#000"/><path d="M644.136 67.145s-18.01-13.066-21.54-13.066-25.426-18.01-32.842-17.304-28.956-16.95-77.335-2.472c0 0-1.06-3.532 5.296-4.944 0 0 11.3-3.885 12.006-4.944 0 0 35.666-7.416 48.38-1.06 0 0 16.243 4.59 27.19 15.538 0 0 19.775 5.65 25.425 3.885 0 0 15.538 3.883 16.244 7.06 0 0 10.242 5.298 7.064 9.89 0 0 .706 2.824-9.888 7.415z" fill="#cc7226"/><path d="M622.118 63.42c1.43 1.11 3.232 1.288 4.29 2.718.425.548-.087 1.13-.652 1.307-1.837.547-3.708-.46-5.72.582-.707.37-1.837.053-2.826-.21-2.878-.778-6.11-.83-9.093.387-3.496-1.995-7.663-.953-11.336-2.737-.105-.035-.493.565-.634.53-5.368-2.03-11.99-1.536-16.28-5.562-4.29-.724-8.44-1.536-12.73-2.737-3.213-.9-5.703-2.648-8.563-4.114-2.437-1.253-4.997-2.17-7.716-2.842-3.284-.795-6.515-.6-9.852-1.52-.177-.034-.512.566-.654.53-.564-.193-1.093-1.217-1.394-1.13-2.966.92-5.597-.794-8.528-.193-2.083-2.155-5.12-1.732-7.857-2.508-5.243-1.5-10.804.74-16.154-1.024 7.256-3.25 15.537-1.078 22.706-4.732 4.114-2.084 8.81-.142 13.348-1.484.865-.264 2.084-.618 2.79.565.247-.247.565-.653.67-.618 4.31 2.048 8.405 4.29 12.784 6.18.6.264 1.554-.16 1.995.21 2.683 2.138 6.108 1.96 8.563 4.115 3-.883 6.162-.212 9.216-1.324.14-.034.547.566.6.53 2.012-1.324 4.043-.847 5.614-.317.6.212 1.766.653 2.313.777 1.978.476 3.496 1.324 5.58 1.66.194.035.53-.566.653-.53 1.978.776 3.814.688 4.98 2.736.246-.247.53-.653.67-.618 1.82.6 2.966 1.943 4.91 2.366.846.177 1.94 1.29 2.947 1.607 4.22 1.29 7.487 3.99 11.353 5.563 1.342.547 2.896.97 4.008 1.836zM486.81 38.294c-4.446-3.037-8.627-4.997-12.94-8.157-.318-.23-.954.07-1.31-.142a78.43 78.43 0 0 1-5.08-3.337c-.952-.67-2.402-.653-3.3-1.112-4.49-2.278-9.132-3.266-13.56-5.368 1.205-1.13 3.186-.688 4.24-2.118.343.494.763.988 1.387.653 2.962-1.59 6.23-1.854 9.188-1.695 3.01.16 6.046.69 9.18 1.183.542.072.893.99 1.463 1.166 3.934 1.166 8.152.247 11.894 1.73 2.81 1.113 5.58 2.56 7.77 4.803.443.458-.13 1.006-.625 1.34.685-.193 1.167.178 1.363.725.15.424.15.953 0 1.377-.197.548-.69.724-1.35.812-2.485.336.644-2.1-.592-1.306-2.248 1.448-.93 3.92-2.246 6.162-.494-.336-.9-.724-.706-1.413.413.92-.65 1.43-.946 1.996-.68 1.27-2.268 3.778-3.83 2.7zM429.43 51.27c-5.57-1.393-10.954-1.2-16.28-3.46-.118-.034-.51.566-.624.53-2.412-1.06-4.033-2.754-5.933-4.608-1.612-1.57-4.54-.883-6.79-1.748-.57-.212-.93-1.112-1.46-1.183-2.153-.28-3.79-1.96-5.635-2.965 4.125-1.413 8.382-1.342 12.73-2.03.198-.036.454.547.69.547.24 0 .47-.406.705-.636.344.495.878 1.077 1.33.618.97-.953 1.95-.618 2.904-.547.254.017.475.565.71.565.24 0 .47-.565.706-.565.24 0 .472.565.706.565.24 0 .47-.406.706-.636 1.222 1.377 2.784.406 4.236.724 1.832.39 2.304 2.42 4.2 2.95 8.325 2.294 15.63 6.09 23.333 9.78.542.248.913.69.72 1.378.47 0 1.023-.16 1.358.07 1.868 1.307 3.706 2.26 4.937 4.202.38.6-.2 1.325-.61 1.236-7.82-1.765-14.894-2.842-22.64-4.785zM404.958 129.332c-2.81-2.152-3.842-5.738-5.834-8.902-.378-.6.106-1.155.666-1.312.99-.28 1.947.563 2.67.92 3.08 1.522 5.79 3.715 9.317 3.96 3.514 3.945 11.035 4.625 11.048 10.594 0 1.517-2.52-.104-3.28 1.413-4.327-1.77-8.545-1.59-12.747-4.18-1.09-.672-.507-1.472-1.84-2.493zM356.336 36.493c.238 0 12.652.424 12.622.618-.08.548-13.728 2.402-14.37 2.102-.29-.14-13.553 4.15-13.79 3.92.473-.247 15.068-6.64 15.538-6.64z" fill="#cc7226"/><path d="M383.527 53.726s-26.132 3.178-33.9 5.297-40.61 15.537-45.908 19.07c0 0-23.66 9.533-53.676 44.846 0 0 13.42-6.004 17.303-10.948 0 0 24.013-22.247 23.66-17.656 0 0 21.54-15.185 20.48-11.3 0 0 43.083-19.776 39.552-14.126 0 0 38.137-8.122 36.37-4.59 0 0 33.195 7.768 28.25 8.122 0 0-10.24 2.118 1.06 8.475 0 0-6.002 7.77-15.537.706s-4.237-3.178-13.066-1.413c0 0-4.59 1.413-12.712-5.65 0 0-9.888-8.122-25.426-1.765 0 0-54.03 22.247-57.56 23.306 0 0-6.357 4.945-10.595 11.3 0 0-10.24 7.77-15.537 10.242 0 0-22.6 20.482-24.72 22.954 0 0-6.003 9.18-7.415 9.887 0 0 11.3-6.71 14.83-10.24 0 0 24.72-17.657 34.255-19.07 0 0 7.77-5.297 9.18-7.768 0 0 25.427-16.244 32.842-16.244 0 0 16.244 9.182 20.482-3.178 0 0 10.24-3.178 20.128-1.06 0 0 5.65-4.59 4.238-8.474 0 0 2.825-3.178 4.59 3.53 0 0 6.004 6.358 14.48 2.826 0 0 7.06-.353 3.53 3.885 0 0-7.77 6.708-28.603 7.06 0 0-21.895 1.06-50.85 14.48 0 0-52.617 18.362-68.86 36.725 0 0-11.3 15.538-20.836 17.657 0 0-10.242 1.412-20.836 14.478 0 0 17.304-10.24 33.195-10.24 0 0 7.06-4.238.352 2.118 0 0-6.357 13.42-3.532 22.953 0 0-1.06 9.183-2.47 12.008 0 0-13.774 22.6-13.774 26.837s2.12 21.54 2.826 22.6-1.766-2.824 4.943 1.413 11.654 7.063 13.066 12.007-3.53-9.535-3.883-12.713-7.77-15.89-6.357-20.128c0 0 1.766 1.765 3.18 4.237 0 0-1.06-1.058 0-7.415 0 0 1.41-9.18 3.883-14.83s6.003-12.36 6.71-13.773.706-11.653 3.178-7.063l6.004 4.59s-4.944-4.59-1.06-8.475c0 0-1.765-9.888 1.413-14.478 0 0 12.36-14.832 15.184-16.597s.355-1.06.355-1.06 10.593-7.415.353-4.59c0 0-7.063 2.825-12.36 2.825 0 0-13.42 3.53-6.356-3.885s24.72-16.95 31.428-16.597l1.413 2.825 19.775-4.237-2.12 1.413s-.352-.353 7.064-1.06 17.656 1.766 20.128-1.412 8.475-4.943 7.77-2.47-1.06 6.002-1.06 6.002 8.828-10.24 7.77-6.356-15.54 13.066-18.01 24.013l18.362-14.48 6.356-5.296s6.356 3.884 6.71 1.06 8.475-13.067 10.593-12.714 5.65-4.59 5.298 0 13.066 14.126 13.066 14.126 5.65-3.18 8.122-.707 9.888-34.96 9.888-34.96l44.14-18.716 76.983-6.003-30.014-12.006-107.706-20.128z" fill="#000"/><path d="M415.66 405.09s-26.483-29.664-41.315-34.254c0 0-23.66-12.007-67.094 1.765" stroke-width="3.5313" stroke="#4c0000"/><path d="M368.695 368.364s-44.494-14.125-71.685-6.71c0 0-32.488 3.532-47.32 27.898" stroke-width="3.5313" stroke="#4c0000"/><path d="M362.34 366.245s-30.017-12.713-56.15-16.597c0 0-29.308-4.59-58.618 8.122 0 0-21.54 10.594-31.076 28.604" stroke-width="3.5313" stroke="#4c0000"/><path d="M364.105 366.95s-27.19-19.42-28.957-21.893c0 0-12.36-19.422-35.313-20.128 0 0-37.785 1.412-68.154 15.537" stroke-width="3.5313" stroke="#4c0000"/><path d="M361.8 351.073c2.723 2.583 50.33 53.663 50.33 53.663 62.15 64.623 12.713 4.238 12.713 4.238-13.42-8.475-29.663-41.67-29.663-41.67-2.12-4.943 24.72 12.713 24.72 12.713 7.062 1.413 31.074 35.313 31.074 35.313-12.006-4.237-3.53 8.475-3.53 8.475 4.943 3.53 40.964 31.076 40.964 31.076 6.356 7.063 13.417 9.888 13.417 9.888 24.72-9.18 13.42 14.125 13.42 14.125 4.236 12.007 14.124-8.475 14.124-8.475 19.774-29.663-9.182-25.425-9.182-25.425-52.97 4.944-64.976-23.307-64.976-23.307-4.238-4.237 11.3 0 11.3 0 14.833 3.532-12.713-21.894-12.713-21.894 4.237 0 20.48 12.007 20.48 12.007 18.365 16.243 21.897 12.71 21.897 12.71 31.78-15.536 50.142-2.117 50.142-2.117 3.53 2.825-6.357 14.83-3.532 24.012s11.3 31.076 11.3 31.076c-4.238 2.826-3.53 21.895-3.53 21.895 29.662 40.963 12.71 37.432 12.71 37.432-27.543-.707-1.41 12.712-1.41 12.712 5.65 3.53 21.187 16.243 21.187 16.243-4.944-2.12-7.77 7.063-7.77 7.063 8.476 7.062 3.532 15.537 3.532 15.537-10.594 2.12-12.713 9.182-12.713 9.182 12.007 14.125-5.65 14.83-5.65 14.83 6.357 7.77-2.118 28.958-2.118 28.958-8.476 0-19.776 9.887-19.776 9.887 4.238 8.476-14.125 18.363-14.125 18.363-14.83 2.825-9.887 14.832-9.887 14.832-14.124 10.593-18.36 38.844-18.36 38.844-1.414 18.362-5.65 24.012 3.53 20.48 9.18-3.53 7.767-25.425 7.767-25.425-8.473-27.544 67.095-55.794 67.095-55.794 7.062-2.824 8.475-12.006 8.475-12.006 3.53.706 19.07 14.125 19.07 14.125 13.418 19.775 14.124 3.53 14.124 3.53 2.118-6.356-.707-16.95-.707-16.95 10.593-38.138-14.126-49.438-14.126-49.438-17.656-59.325 7.063-44.494 7.063-44.494 4.944 9.888 24.013 19.07 24.013 19.07l6.356-4.24c-2.826-8.474 12.005-19.067 12.005-19.067 4.944 11.3 15.538-2.825 15.538-2.825 6.356-43.08 28.25-17.656 28.25-17.656 7.063 2.118 9.182-9.89 9.182-9.89 6.356-18.36 0-42.374 0-42.374 6.356-.706 23.306 9.888 23.306 9.888 4.945-6.357-11.3-36.02-4.236-31.782s14.83 7.062 14.83 7.062c1.414-3.53-16.243-25.425-16.243-25.425-7.768-4.945-16.95-40.964-16.95-40.964 12.714 6.356-4.943-20.48-4.943-20.48 0-5.65 10.594-25.427 10.594-25.427-1.41-12.007 0-11.3 0-11.3 4.945 2.118 19.07 4.943 7.064-6.357s1.412-19.775 1.412-19.775c7.77-4.944-16.244-4.238-16.244-4.238-9.18-7.77-8.475-14.83-8.475-14.83 14.125 3.53-11.3-21.895-15.537-28.252s12.712-15.537 12.712-15.537c23.307-6.356 2.825-12.006 2.825-12.006-34.606.707-15.537-18.362-15.537-18.362 10.593.706 7.768-3.532 7.768-3.532-9.18-2.12-26.13-13.42-26.13-13.42-7.064-6.355-.707-4.942-.707-4.942 29.663 2.118-21.187-17.657-21.187-17.657 14.125 0-17.657-18.362-17.657-18.362-3.53-2.825-9.18-16.244-9.18-16.244-10.595-9.18-19.07-21.187-19.07-21.187-.706-7.77-9.18-16.244-9.18-16.244-20.483-24.013-30.37-23.307-30.37-23.307-26.132-6.356-35.313-4.944-35.313-4.944l-93.227 7.77c-46.613 22.6-32.84 59.678-32.84 59.678 11.3 14.83 27.544 8.122 27.544 8.122 8.122-10.947 28.603-7.063 28.603-7.063 36.02 5.65 31.43-.707 31.43-.707-4.237-8.122-32.843-19.07-33.196-20.128s-15.89-7.063-15.89-7.063c-5.297-2.12-13.066-18.363-13.066-18.363-5.65-6.004 22.248 4.237 22.248 4.237-2.12 1.766 10.947 8.828 10.947 8.828 30.724-1.765 49.44 17.304 49.44 17.304 19.067 29.308 19.42 14.83 19.42 14.83 4.944-16.597-15.89-54.03-15.89-54.03.706-3.53 15.184 8.123 15.184 8.123 2.47-3.53 3.883 6.71 3.883 6.71.353 4.237 7.063 18.362 7.063 18.362 4.944 22.954 11.3 9.888 11.3 9.888l8.122 16.597c2.472 4.59-8.122 18.01-8.122 18.01-.353 4.943 1.06 4.59-8.828 18.01s-3.885 21.187-3.885 21.187c-2.472 11.653 13.066 10.947 13.066 10.947 4.59 3.884 10.593 3.884 10.593 3.884 3.178 3.532 7.416 2.472 7.416 2.472 2.824-6.71 13.77-3.178 13.77-3.178 2.473-4.237 16.95-4.944 16.95-4.944 1.767-4.59 2.473-7.415 8.476-8.475s-37.432-76.982-37.432-76.982c11.3-1.41-3.178-23.305-3.178-23.305-3.884-11.654 16.244 14.125 20.13 16.597s5.65 6.356 2.824 6.003-6.004 3.53-3.532 3.884 25.426 26.837 31.43 44.847 16.596 25.072 27.543 35.666 9.535 53.322 9.535 53.322c-.706 15.538 9.888 34.254 9.888 34.254 3.53 6.708-3.884 38.843-3.884 38.843-3.533 3.884-1.06 5.297-1.06 5.297 1.765 2.12 13.77 25.425 13.77 25.425-3.177-.353 3.18 6.003 3.18 6.003 9.18 10.594-2.12 5.297-2.12 5.297-10.593-2.825 1.766 14.48 1.766 14.48 2.12 3.177-13.772-4.945-13.772-4.945-16.244-1.06 4.238 11.653 4.238 11.653 15.184 12.713-4.944 4.944-4.944 4.944-8.122-3.178-2.472 8.828-2.472 8.828 5.65 2.825 36.02 15.185 36.02 15.185.706 6.71-4.59 15.537-4.59 15.537.705 7.063-3.18 13.066-3.18 13.066-2.118 14.48-3.178 15.89-3.178 15.89-7.415.354-20.48 24.72-20.48 24.72-3.18 4.59-21.19 25.78-21.19 25.78-3.53 12.358-35.312-.355-35.312-.355-11.653 6.004-8.122 0-8.122 0-.706-3.884 7.77-14.478 7.77-14.478 12.358-4.59 7.768-23.66 7.768-23.66 7.062-2.47-12.713-7.415-12.36-9.534s10.594-4.59 10.594-4.59c14.125-3.532 6.356-7.77 6.356-7.77-1.06-7.062 4.238-16.95 4.238-16.95 20.482-1.412 0-30.016 0-30.016-19.07-13.42-20.835-23.66-20.835-23.66 22.248-14.478 7.77-36.372 8.122-42.728s2.472-44.494 2.472-44.494c-3.532-10.947-8.83-34.96-8.83-34.96 3.885-9.182 16.95-31.43 16.95-31.43 4.945-7.414 20.483-15.89 16.598-21.186s-17.656-2.12-17.656-2.12c-13.772-2.47-12.713 6.71-12.713 6.71-2.826 1.766-4.238 10.594-4.238 10.594-1.272 14.007-16.95 25.072-16.95 25.072-19.776 10.947-3.532 18.01-3.532 18.01 10.594 11.653-6.71 12.006-6.71 12.006-19.42-3.178-4.943 14.832-4.943 14.832 19.07 22.6 13.772 27.544 13.772 27.544-18.01 1.765 4.236 18.01 4.236 18.01s-1.412-3.532-1.06-.354 5.65 10.594 7.064 14.125-5.65 3.886-5.65 3.886c1.06 16.95-26.132 9.534-26.132 9.534l-2.825.354c-2.825.353-22.6-1.06-32.84-4.944s-22.246-3.885-22.246-3.885-7.063 3.178-20.484 2.825c-13.42-.353-27.544 4.59-27.544 4.59-7.77-.705 7.415-8.474 7.768-8.12s10.24-9.535-3.884-8.476c-38.486 2.887-57.56-15.185-57.56-15.185-3.532-2.473-8.122-7.416-8.122-7.416-17.657-3.532 2.472 21.894 2.472 21.894 2.118 2.472-.354 4.237-.354 4.237-1.412-2.825-15.184-12.36-15.184-12.36-4.963-1.717-7.37-4.073-11.486-8.462z" fill="#000"/><path d="M319.61 330.58s20.482 9.887 25.072 14.83 29.31 25.073 29.31 25.073-9.534-3.532-14.125-6.71-23.66-17.656-23.66-17.656-6.71-10.594-16.597-15.538z" fill="#4c0000"/><path d="M217.187 275.496c.595-.26-.33-5.05-.69-6.008-1.805-4.813-17.657-7.416-17.657-7.416-.4 2.41-.498 5.228-.31 8.12 0 0 8.594 9.745 18.657 5.304z" fill="#99cc32"/><path d="M217.187 275.143c-.793.28-.027-4.827-.337-5.655-1.805-4.813-18.01-7.593-18.01-7.593-.4 2.41-.498 5.23-.31 8.12 0 0 7.535 9.04 18.657 5.128z" fill="#659900"/><path d="M209.434 275.396c-1.104 0-1.997-2.013-1.997-4.496 0-2.48.893-4.493 1.997-4.493s2 2.013 2 4.493c0 2.483-.897 4.496-2 4.496zM128.92 448.525s-9.888 17.657 33.9 7.063c0 0 24.72-2.12 28.957-6.357 2.12 1.414 16.89 6.587 21.894 7.77 12.007 2.825 26.84-14.83 26.84-14.83s8.12-18.54 13.065-18.54-.707 2.825-.707 2.825-11.653 17.833-10.947 20.658c0 0-9.18 35.313-37.43 36.725 0 0-28.516 1.678-26.132 12.007 0 0 15.538-4.238 19.775 0 0 0 19.07-.707 4.944 10.594l-12.006 20.48s.248 6.92-17.656.706c-17.303-6.003-35.49-28.78-35.49-28.78s-28.16-25.69-9.004-50.32z" fill="#000"/><path d="M126.8 455.588s-3.53 16.95 61.446-1.413l12.006 1.413c4.238 1.412 25.425 6.356 28.957 4.237 0 0-12.714 24.013-33.195 21.188 0 0-23.307 2.825-22.6 11.3 0 0 7.062 12.713 15.537 16.95 0 0 4.944 4.238 4.238 9.888s-5.65 8.476-9.182 9.89-9.18-4.24-12.006-4.24-17.657-11.3-25.426-19.774-22.6-29.663-21.894-34.607l2.12-14.832z" fill="#e59999"/><path d="M132.45 486.398c4.592 6.975 10.242 14.39 14.126 18.628 7.77 8.475 22.6 19.775 25.426 19.775s8.475 5.65 12.006 4.24 8.475-4.24 9.182-9.89-4.238-9.886-4.238-9.886c-5.414-2.702-10.25-8.864-13.04-12.978 0 0 .327 4.502-8.854 3.09s-18.363-6.356-21.188-12.006-7.063-9.888-4.237-3.532 7.062 12.713 9.887 13.42 2.12 2.824-2.12 2.118-9.18-1.413-16.95-10.594z" fill="#b26565"/><path d="M127.86 449.23s3.18-24.01 5.297-31.074c0 0-1.412-12.006 2.825-19.422s7.77-18.363 13.066-27.897 5.65-16.597 12.713-19.423 17.657-18.01 22.6-19.775 4.592-.354 4.592-.354 12.006-26.132 36.02-19.07c0 0-28.604-4.943-.707-21.54 0 0-8.475 1.942-2.65-10.417 3.888-8.243 3.003 3.707-16.42 24.54 0 0-8.827 15.186-18.01 20.483S156.818 342.94 154.7 349.65s-7.77 16.95-11.3 19.774-8.475 10.24-9.18 16.244c0 0-2.12 7.063-4.592 9.18s-2.825 7.77-2.825 11.302-3.53 8.475-3.177 12.712c0 0 1.412 33.548.706 37.08l3.53-6.71z" fill="#992600"/><path d="M112.676 457.353s-3.53-2.47-11.3 8.122c0 0 12.89 58.267 12.89 60.74 0 0 1.94-3.71-.354-16.422s-3.885-35.136-3.885-35.136l2.65-17.304z" fill="#FFF"/><path d="M150.814 350.355s-31.076 5.65-30.37 57.207l-1.412 43.788s-2.12-45.2-4.237-48.025 4.943-22.6-.707-12.007c0 0-24.72 24.72-10.594 62.15 0 0 2.65 5.828-2.648-2.294 0 0-8.122-22.247-6.18-33.548 0 0 .353-3.884 3.708-8.828 0 0 15.185-20.658 19.952-24.72 0 0 3.178-25.424 30.37-34.606 0 0 10.063-4.06 2.118.883z" fill="#992600"/><path d="M396.946 233.47c1.165-.626 1.15-2.34 2.173-2.644 2.028-.607 2.317-2.49 3.232-3.876 1.54-2.33 1.882-5.035 2.91-7.668.48-1.236.528-2.922-.025-4.087-2.073-4.38-3.312-8.705-5.858-12.99-.475-.793-.937-2.195-1.292-3.25-.818-2.445-3.037-4.194-4.555-6.525-.51-.78.418-2.412-.846-2.56-1.584-.186-4.142-1.21-4.554.602-1.038 4.568.747 9.022 2.456 13.334-1.382 1.222-.792 2.848-.523 4.202 1.253 6.367-.862 12.286-2.206 18.42-.04.183.564.533.515.642a67.633 67.633 0 0 1-7.933 13.264c-1.338 1.75-2.878 3.37-3.756 5.246-.65 1.39-1.37 3.095-.928 4.84-6.065 4.908-10.038 11.697-14.648 18.487-.816 1.2-.302 3.336.67 3.81 1.436.703 3.124-1.105 3.954-2.598.687-1.234 1.31-2.38 2.177-3.517.236-.31-.08-1.05.158-1.262 4.65-4.143 7.596-9.327 11.927-13.508 3.443-.58 6.157-2.343 9.243-4.132.544-.316 1.47.124 1.982-.22 3.095-2.08 3.09-5.674 3.278-9.046.09-1.56.435-3.886 2.448-4.965z" fill="#000"/><path d="M381.335 225.584c.22-.136-.054-.883.138-1.265.286-.573.998-.905 1.284-1.477.192-.38-.096-1.052.145-1.303 4.12-4.32 4.573-9.66 2.743-14.91 1.808-1.094 1.916-3.322 1.166-4.817-1.505-3.002-1.846-6.403-3.568-9.127-1.416-2.24-4.202-4.437-6.623-2.136-.744.706-1.31 2.095-.82 3.353.113.287.616.545.57.69-.19.572-1.154.968-1.165 1.448-.053 2.642-1.737 5.31-.625 7.657 1.363 2.876 2.81 6.155 4.003 9.29-2.18 3.737-.355 8.06-3.45 11.375-.24.258-.225.94-.01 1.296a6.105 6.105 0 0 0 2.09 2.09c.358.214.972.218 1.326 0 1.02-.64 1.722-1.5 2.795-2.164zM492.24 207.378c2.452 3.164 2.964 8.1-.654 10.553.97 5.844 6.888 2.35 10.592 1.414-.194-.685.212-1.293.707-1.3 1.87-.028 3.072-1.85 4.943-1.525.777-2.75 3.655-3.99 4.803-6.426 3.038-6.524 1.996-14.07-2.56-19.8-.352-.45.018-1.362-.194-2-1.34-3.905-4.98-4.46-8.404-5.676-2.076-6.842-3.243-13.96-6.355-20.48-2.85-.443-4.082-3.513-6.442-4.784-2.354-1.27-3.357 1.518-3.285 3.365.013.36.81.756.51 1.4-.133.29-.593.486-.593.723.002.238.392.47.63.706-1.622 1.447-4.134 2.29-4.655 4.31-1.685 6.552 2.858 12.07 5.803 17.72 1.044 2.005-.256 4.25-1.597 6.382-.774 1.227-.583 3.217-.096 4.73 1.328 4.114 4.137 7.185 6.847 10.686zM426.628 239.84c-2.626 3.27-8.65 7.805-3.5 11.21.343.227.996.234 1.302-.002 3.568-2.763 7.105-4.358 11.406-5.385.22-.052.702.773 1.354.49 2.848-1.243 6.397-1.14 8.487-3.503 6.652.396 12.946-1.575 18.934-3.884 2.05-.79 4.293-1.778 6.413-2.664 2.43-1.017 4.556-2.656 6.52-4.67.234-.24.86-.082 1.33-.082-.07-1.523 1.628-1.748 2.064-2.846.163-.41-.102-1.11.133-1.29 3.775-2.877 5.4-6.44 3.335-10.637-.503-1.02-.943-2.112-1.942-2.952-1.916-1.61-3.86-.1-5.71-.637-.28 1.108-1.568.805-2.25 1.154-1.516.775-3.87-.258-5.387.516-2.404 1.227-4.596 1.525-7.106 2.19-.55.146-1.925-.024-2.207 1.083-.237-.235-.498-.648-.685-.61-3.37.7-5.594 1.077-7.89 4.065-.183.235-.963-.08-1.244.157-1.69 1.427-2.405 3.606-4.35 4.792-.354.217-.975-.08-1.318.148-1.14.76-1.788 1.893-2.922 2.682-.58.405-1.287-.17-1.23-.62.432-3.44 1.585-6.594.57-9.906 3.667-4.45 8.11-7.89 11.3-12.713.026-3.824 1.248-7.614 1.05-11.28-.02-.342-.528-1.636-.75-2.248-.55-1.508 1.05-3.39-.44-4.67-2.48-2.123-4.762-.576-6.217 1.954-3.245.69-6.893 1.913-9.68-.266-1.777-1.39-2.797-2.99-4.208-4.853-1.74-2.298-1.15-4.834-1.025-7.595.01-.226-.546-.466-.546-.703 0-.238.39-.47.626-.706-1.247-1.106-1.732-2.974-3.53-3.532.537-1.928-.656-3.488-2.194-4.022-3.523-1.22-6.484 2.156-9.824 2.285-.908.034-1.732-1.8-2.878-2.373-.763-.38-2.006-.44-2.645.03-1.215.89-2.255 1.09-3.593 1.453-2.855.77-5.112 2.702-7.725 4.21-2.622 1.514-4.308 4.052-6.215 6.382-1.662 2.033-1.902 6.296.605 7.178 3.255 1.148 5.557-3.624 9.028-3.05.55.09.915.64.72 1.325.687.193 1.072-.21 1.413-.706 1.515 1.8 3.57 2.394 5.226 3.936 1.713 1.596 4.796.858 6.588 2.618 2.7 2.653 1.713 7.387 5.136 9.69-1.034 2.32-2.106 4.574-2.698 7.094-.497 2.13 1.258 4.243 3.396 4.082 2.22-.166 2.684-1.506 3.54-3.406.47.47 1.3.996 1.227 1.377-.807 4.215-2.62 7.734-3.43 12.026-.103.56-.642.916-1.328.722-.827 7.326-7.98 11.553-12.475 17.14-.71.887-.718 3.093.004 3.804 2.477 2.448 5.938-.28 8.94-1.17.375-2.13 1.892-3.792 4.244-3.693.452.017.867-.94 1.44-1.17.613-.243 1.5.153 2.005-.197 3.053-2.11 5.54-4.063 8.607-6.162.34-.23.947.05 1.328-.14.574-.287.904-.97 1.474-1.297.615-.352 1.042.16 1.383.654-1.14.616-1.148 2.306-2.175 2.663-1.37.473-2.36 1.38-3.55 2.168-.515.34-1.68-.097-1.862.22-1.056 1.814-3.147 2.587-4.4 4.146zM328.79 152.602s-16.31-5.07-36.018 40.257c0 0-4.237 9.18-8.475 12.712s-24.013 9.887-27.544 16.95l-18.363 28.25s26.132-28.25 31.782-32.488c0 0 14.125-14.83 8.475-2.825 0 0-24.72 19.068-22.6 35.312 0 0-9.888 25.426-11.3 28.957 0 0 28.25-56.502 32.487-58.62s6.357-2.12 4.238 4.237-2.825 35.313-7.77 38.844c0 0 14.126-36.018 12.714-41.668 0 0 5.65-6.356 9.887 2.825l-2.118 28.25 7.77 21.188s-4.24-19.775-1.414-47.32c0 0-3.53-18.362 3.532-8.474s24.013 20.482 24.013 28.957c0 0-9.18-31.075-25.425-39.55l-7.063 10.594-2.12-3.53s-6.355-1.413 1.414-13.42 7.064-13.418 7.064-13.418 11.3 12.712 14.125 12.712c0 0 23.305-13.42 25.424 29.663 0 0 12.007-25.425-4.237-37.432 0 0-26.132-3.53-24.013-12.712l12.712-21.894c6.357-9.183 3.532-4.24 3.532-4.24z" fill="#000"/><path d="M293.478 181.56l-28.25 9.18-12.713 16.95s30.37-17.656 37.432-19.775 3.53-6.356 3.53-6.356zM222.852 192.86s-3.53 2.118-4.237 7.062-4.944 5.65-3.53 10.594 4.942 9.18 4.942 2.118 2.825-10.594 4.238-12.712 4.238-9.888-1.413-7.063zM207.315 300.917s-14.832-7.063-20.482-13.42-4.852 2.766-13.42 2.12c-10.323-.78-8.474-28.957-8.474-28.957l-7.063 13.42s-2.12 25.424 12.006 21.187c6.898-2.07 9.18.706 6.356 2.12s9.887 2.117 4.943 4.942 20.482-6.357 16.244 12.006l9.888-13.42zM185.068 326.342s-27.19 7.77-33.548-9.18c0 0-8.475 4.236-4.59 9.533s6.003 6.004 6.003 6.004 9.534 2.117 8.475 3.53-5.297 7.416-5.297 7.416 18.01-10.594 28.958-17.304z" fill="#000"/><path d="M588.342 464.416c-.76 3.78-3.708 5.19-7.063 6.356-3.39-1.695-7.964-7.168-11.3-3.53-.83-.848-2.208-.954-2.826-2.12-.812-1.59-.335-3.425-.936-4.838-.97-2.26-2.207-4.66-1.89-7.168 3.197-1.254 4.24-4.626 3.41-7.734-.125-.46-.884-.794-.53-1.412.335-.583.882-.97 1.36-1.448-.23.247-.496.653-.69.618-1.077-.194-.865-1.324-.636-1.995 1.042-3.09 4.59-3.55 6.975-1.448.46-.99 1.36-.653 2.12-.706-.09-1.023.634-1.96.987-2.7.918-1.925 3.78.017 5.19-1.06 1.908-1.466 3.78-2.684 5.687-1.625 3.197 1.784 6.216 3.92 8.335 7.01 1.006 1.466 1.43 3.726 1.324 5.42-.072 1.148-2.508.513-3.11 2.155-1.146 3.09 2.102 4.008 3.427 6.374.353.618-.106 1.147-.67 1.324-.725.23-2.102-.106-1.873.69 1.73 5.63-3.143 6.832-7.292 7.838zM571.392 499.023c-.018-3.072-2.843-6.162-.707-9.182.248.25.477.637.707.637.247 0 .476-.388.706-.636 2.648 3.92 9.093 5.546 8.846 10.578-.053.794-1.96 2.42-.37 3.55-3.197 2.382-3.303 6.567-4.945 9.886-2.19-.494-4.327-1.147-6.357-2.118.618-2.614.424-5.598 1.872-7.928.76-1.236.247-3.143.247-4.785z" fill="#FFF"/><path d="M277.94 483.132s-29.765 17.904-4.943-9.18c15.538-16.952 33.194-26.84 33.194-26.84s18.364-7.768 24.72-9.887 33.194-11.3 38.845-12.006 22.6-7.77 34.606-.708 26.133 14.832 26.133 14.832-28.957-14.832-35.313-10.594-19.07 3.53-29.663 9.18c0 0-26.132 7.77-31.782 11.302s-24.013 24.012-26.838 22.6.707-2.12 2.825-7.063-1.412-7.77-15.537 3.53-16.244 14.832-16.244 14.832z" fill="#CCC"/><path d="M291.015 472.59s2.49-23.023 17.46-20.074c0 0 14.523-7.363 19.33-10.84 0 0 14.37-3.003 16.683-4.098 32.628-15.357 58.616-7.378 59.582-9.356.964-1.976 35.615 10.592 41.987 17.796.69.795-18.064-9.87-35.188-13.207-14.608-2.854-52.75.425-72.006 10.206-5.25 2.667-21.043 12.872-25.51 12.678s-22.34 16.897-22.34 16.897z" fill="#000"/><path d="M284.297 517.74s-26.838-4.24 2.825-7.064c0 0 31.782-3.53 38.844-12.713 0 0 24.013-16.244 28.957-16.95s57.913-13.42 58.62-17.656 10.594-4.238 13.42-2.825 1.41 3.53-3.533 4.943-60.032 30.37-71.332 32.488-31.782 15.538-40.257 17.657-27.543 2.12-27.543 2.12z" fill="#CCC"/><path d="M318.763 504.673s-15.153-1.466.033-2.896c0 0 15.566-6.056 19.182-10.753 0 0 12.296-8.316 14.826-8.687 2.532-.353 27.18-6.868 27.543-9.04s60.51-24.383 68.314-18.75c5.14 3.707-12.34.758-29.35 8.545-2.393 1.095-62.166 26.838-67.952 27.932-5.786 1.077-16.272 7.946-20.612 9.04-4.338 1.078-11.983 4.61-11.983 4.61zM304.78 508.557s9.18-.706 7.06 2.12-6.355 1.412-6.355 1.412l-.706-3.533zM292.066 511.382s9.18-.706 7.063 2.12-6.358 1.412-6.358 1.412l-.706-3.532zM273.703 514.207s9.182-.706 7.063 2.12-6.357 1.412-6.357 1.412l-.707-3.533zM260.284 515.62s9.182-.706 7.063 2.12-6.357 1.41-6.357 1.41l-.706-3.53zM328.085 445.7l5.65 2.825c-2.12 2.825-7.77 2.12-7.77 2.12l2.12-4.945zM310.43 455.588s11.486-3.78 7.06 2.12c-2.118 2.824-6.355 1.41-6.355 1.41l-.706-3.53zM290.653 464.063s9.182-.706 7.063 2.12-6.356 1.41-6.356 1.41l-.707-3.53zM277.234 474.657s9.182-.706 7.063 2.12-6.356 1.41-6.356 1.41l-.706-3.53zM265.228 483.132s9.18-.706 7.063 2.12-6.356 1.41-6.356 1.41l-.706-3.53z" fill="#000"/><path d="M334.233 494.432s12.22-.936 9.4 2.825c-2.82 3.743-8.46 1.872-8.46 1.872l-.94-4.698zM352.596 485.957s12.22-.936 9.4 2.825c-2.82 3.743-8.46 1.872-8.46 1.872l-.94-4.697zM371.665 478.188s12.22-.936 9.4 2.825c-2.82 3.743-8.46 1.872-8.46 1.872l-.94-4.697zM390.028 469.713s12.22-.936 9.4 2.825c-2.82 3.743-8.46 1.872-8.46 1.872l-.94-4.697zM341.296 437.93s12.22-.934 9.4 2.826c-2.82 3.744-9.873 3.284-9.873 3.284l.473-6.11zM358.952 432.28s12.22-.942 9.4 2.826c-2.82 3.743-10.58 3.284-10.58 3.284l1.18-6.11zM318.904 502.907s9.18-.706 7.062 2.12-6.356 1.412-6.356 1.412l-.706-3.533z" fill="#000"/><path d="M189.658 327.755s-7.77 15.537-8.475 21.188c0 0 1.413-15.538 3.53-19.07s4.945-2.118 4.945-2.118zM157.17 352.474s-5.65 25.425-4.944 30.37c0 0-2.118-20.482-1.412-22.6s6.356-7.77 6.356-7.77z" fill="#992600"/><path d="M193.896 220.756l-.353 5.65-3.885.354s25.072 22.247 26.132 35.666c0 0 1.412-14.48-21.894-41.67z" fill="#CCC"/><path d="M200.93 222.99c-.76-.735-.374-2.05-1.095-2.51-1.428-.91 2.292-1.01 1.89-2.275-.677-2.13-.346-2.166-.562-4.42-.1-1.055.938-3.774 1.618-4.55 2.554-2.918.216-8.095 3.112-10.834.536-.51 1.2-1.483 1.703-2.22 1.164-1.702 3.255-2.563 4.932-4.025.56-.488.206-1.948 1.21-1.785 1.262.203 3.453-.027 3.374 1.458-.2 3.743-2.546 6.78-4.806 9.725.797 1.243-.012 2.364-.513 3.348-2.357 4.627-2.023 9.643-2.33 14.658-.01.15-.55.287-.537.38a54.07 54.07 0 0 0 3.207 11.942c.646 1.642 1.477 3.222 1.742 4.86.196 1.21.378 2.68-.342 3.926 3.593 5.103 1.282 9.783 3.346 16.018.365 1.103 3.353 4.483 2.535 4.2-4.436-1.54-4.634-2.242-4.946-3.572-.258-1.1-.84-3.53-1.26-4.594-.112-.29-.414-3.616-.552-3.83-2.67-4.207-.273-3.896-2.692-8.06-2.522-1.2-4.227-3.15-6.21-5.2-.35-.36 1.668-1.64 1.35-2.016-1.93-2.276-3.965-3.63-3.372-6.266.274-1.22.516-3.085-.798-4.356zM194.602 226.053s.706 12.007 4.944 14.832 2.12 1.412-3.53-.706-3.533-3.533-3.533-3.533-4.944.707-.706 4.238 10.594 7.77 7.77 7.77-16.245-7.064-16.245-12.008-1.766-12.183-1.766-12.183 1.942-1.412 10.418-1.236c0 0 2.47 1.236 2.648 2.825z" fill="#000"/><path d="M193.19 258.894s-15.044-4.927-47.673 1.06c0 0 15.946-3.67 49.085.353 18.186 2.207-1.412-1.413-1.412-1.413z" stroke-width=".176565" stroke="#000" fill="#FFF"/><path d="M196.894 258.77s-14.56-6.212-47.586-3.068c0 0 16.205-2.276 48.87 4.596 17.93 3.772-1.284-1.53-1.284-1.53z" stroke-width=".176565" stroke="#000" fill="#FFF"/><path d="M200.05 258.933s-14.057-7.276-47.225-6.596c0 0 16.33-1.067 48.395 8.217 17.596 5.094-1.17-1.62-1.17-1.62z" stroke-width=".176565" stroke="#000" fill="#FFF"/><path d="M202.293 259.327s-12.05-7.605-41.842-9.543c0 0 14.725.3 42.765 11.086 15.39 5.92-.922-1.543-.922-1.543zM405.844 277.895s-1.642 1.137-1.264-.95c.38-2.084 50.185-25.337 56.566-24.896 0 0-53.407 23.316-55.302 25.845z" stroke-width=".176565" stroke="#000" fill="#FFF"/><path d="M399.852 279.023s-1.547 1.262-1.333-.846 48.04-29.202 54.434-29.262c0 0-51.41 27.44-53.102 30.108z" stroke-width=".176565" stroke="#000" fill="#FFF"/><path d="M394.05 281.45s-1.462 1.364-1.388-.755c.074-2.117 35.064-29.48 52.39-32.788 0 0-31.836 14.35-51.002 33.544z" stroke-width=".176565" stroke="#000" fill="#FFF"/><path d="M388.972 284.74s-1.316 1.225-1.248-.68c.067-1.907 31.555-26.532 47.148-29.51 0 0-28.65 12.915-45.9 30.19z" stroke-width=".176565" stroke="#000" fill="#FFF"/><path d="M333.03 545.99s-26.84-4.238 2.824-7.063c0 0 31.782-3.532 38.844-12.713 0 0 24.013-16.244 28.957-16.95s33.9-7.063 34.607-11.3 11.3-8.476 14.125-7.063 2.825 17.657-2.12 19.07-38.137 14.125-49.437 16.244-31.782 15.538-40.257 17.656-27.544 2.12-27.544 2.12z" fill="#CCC"/><path d="M461.92 479.954s-5.296 2.825-7.414 7.416c0 0-11.3 18.715-36.373 24.366 0 0-40.61 15.89-54.382 19.422 0 0-23.658 8.828-36.724 7.415 0 0-12.36.354-1.413 3.18 0 0 35.666-3.533 41.67-6.71 0 0 27.544-9.182 32.84-13.773s37.432-13.42 41.317-16.95 21.188-18.363 20.48-24.366z" fill="#000"/><path d="M358.246 535.59s9.233-.407 7.197 2.33-6.358 1.2-6.358 1.2l-.84-3.53zM345.53 537.973s9.23-.388 7.197 2.348c-2.036 2.738-6.36 1.184-6.36 1.184l-.837-3.53zM327.116 540.18s9.232-.406 7.197 2.33-6.358 1.2-6.358 1.2l-.84-3.53zM313.637 541.15s9.232-.405 7.197 2.332-6.358 1.183-6.358 1.183l-.84-3.514zM387.437 522.524s12.29-.53 9.58 3.107c-2.71 3.656-8.464 1.59-8.464 1.59l-1.116-4.696zM405.65 514.72s10.522-5.827 9.58 3.107c-.478 4.502-8.464 1.59-8.464 1.59l-1.116-4.698zM421.774 509.74s12.64-6.533 9.58 3.126c-1.375 4.308-8.466 1.59-8.466 1.59l-1.114-4.716zM438.572 501.23s7.697-8.652 9.58 3.107c.716 4.485-8.464 1.59-8.464 1.59l-1.116-4.697zM372.286 530.45s9.23-.405 7.197 2.332c-2.036 2.737-6.36 1.2-6.36 1.2l-.837-3.53z" fill="#000"/><path d="M435.144 316.107s-1.282 1.174-1.284-.717c0-1.89 30.87-25.31 46.484-27.753 0 0-28.425 11.882-45.2 28.47z" stroke-width=".176565" stroke="#000" fill="#FFF"/><path d="M440.38 428.75s38.847 39.55 55.09 45.907c0 0 16.243 19.775 9.18 65.682 0 0-5.648 13.418-11.298-23.308 0 0 5.65-44.494-14.125-16.244 0 0-14.834-17.48-3.533-16.95 0 0 5.65 3.532 6.358.706s-13.42-26.837-43.79-52.263 2.12-3.53 2.12-3.53z" fill="#000"/><path d="M337.267 497.257s-.354-3.178 2.825-1.765 169.502 12.36 225.297 54.735c0 0-79.807-40.963-228.123-52.97z" stroke-width=".176565" stroke="#000" fill="#FFF"/><path d="M355.63 489.488s-.354-3.178 2.824-1.765 244.366-.353 286.036 56.854c0 0-38.845-44.495-288.86-55.09z" stroke-width=".176565" stroke="#000" fill="#FFF"/><path d="M376.11 482.426s-.352-3.178 2.826-1.766 309.342-21.54 351.01 35.666c0 0-16.95-45.2-353.835-33.9zM393.767 473.95s-.353-3.178 2.825-1.765 218.94-66.742 260.61-9.535c0 0-23.66-43.435-263.435 11.3zM291.36 514.207s-.353-3.178 2.825-1.765 34.606 5.297 38.138 73.804c0 0-12.713-74.157-40.963-72.04z" stroke-width=".176565" stroke="#000" fill="#FFF"/><path d="M275.822 517.032s-.353-3.178 2.825-1.765 28.25-6.71 23.307 61.798c0 0 2.118-62.15-26.132-60.033z" stroke-width=".176565" stroke="#000" fill="#FFF"/><path d="M261.697 517.74s-.353-3.18 2.825-1.767 30.37 2.472 8.475 42.023c0 0 16.95-42.376-11.3-40.257zM345.258 439.45s-.784 3.53 1.95 1.395c28.37-22.297 85.653-126.297 183.982-136.245 0 0-67.646-21.382-185.923 134.85zM365.033 436.272s-2.406-2.1.892-3.196c3.298-1.113 201.83-129.122 271.204-115.057 0 0-47.868-13.26-272.088 118.252z" stroke-width=".176565" stroke="#000" fill="#FFF"/><path d="M328.235 447.06s-.898 2.825 2.123 1.094c15.846-9.04 22.23-110.054 99.17-112.27 0 0-57.226-25.98-101.293 111.176z" stroke-width=".176565" stroke="#000" fill="#FFF"/><path d="M293.058 466.517s-1.9 2.278 1.547 1.82c18.09-2.35 55.885-75.214 134.348-66.247 0 0-56.44-25.33-135.895 64.427z" stroke-width=".176565" stroke="#000" fill="#FFF"/><path d="M312.9 455.71s-1.43 2.597 1.87 1.485c17.3-5.774 40.402-84.55 119.13-90.81 0 0-60.256-14.026-121 89.326z" stroke-width=".176565" stroke="#000" fill="#FFF"/><path d="M280.628 475.557s-1.54 1.837 1.252 1.483c14.653-1.906 45.266-60.932 108.822-53.668 0 0-45.718-20.517-110.074 52.185z" stroke-width=".176565" stroke="#000" fill="#FFF"/><path d="M267.21 485.992s-1.774 1.854 1.036 1.642c7.36-.547 61.455-58.955 94.063-31.587 0 0-21.216-33.055-95.1 29.945zM389.98 429.63s-2.12-2.393 1.29-3.073c3.412-.678 216.522-102.58 283.546-79.862 0 0-45.8-19.2-284.834 82.934zM330.91 543.164s-.353-3.178 2.825-1.766 30.37 2.472 8.475 42.023c0 0 16.95-42.375-11.3-40.256zM349.273 540.34s-.353-3.18 2.825-1.767 34.607 5.297 38.138 73.805c0 0-12.713-74.158-40.963-72.04z" stroke-width=".176565" stroke="#000" fill="#FFF"/><path d="M361.28 537.514s-.354-3.178 2.824-1.766 46.614 7.416 88.283 64.623c0 0-62.857-64.975-91.108-62.856z" stroke-width=".176565" stroke="#000" fill="#FFF"/><path d="M374.742 533.93s-.77-3.108 2.566-2.12c3.337.972 39.416-2.383 106.682 57.967 0 0-81.53-61.692-109.248-55.847zM393.105 526.16s-.77-3.107 2.566-2.118c3.338.97 64.842 8.917 156.123 70.68 0 0-130.97-74.405-158.688-68.56z" stroke-width=".176565" stroke="#000" fill="#FFF"/><path d="M321.73 505.732s-.354-3.178 2.824-1.765 97.464 6.003 151.14 53.322c0 0-61.623-43.736-153.965-51.558zM304.072 512.795s-.353-3.178 2.825-1.766 46.614 7.415 88.283 64.622c0 0-62.857-64.976-91.108-62.857zM412.312 518.02s-.998-3.036 2.403-2.294c3.4.724 65.322 4.132 160.88 59.043 0 0-137.127-60.74-163.283-56.75z" stroke-width=".176565" stroke="#000" fill="#FFF"/><path d="M427.143 513.784s-.997-3.037 2.403-2.296c3.4.724 65.322 4.132 160.88 59.044 0 0-136.067-61.445-163.283-56.748zM444.094 504.955s-.998-3.037 2.403-2.295c3.4.724 79.447 8.37 237.868 68.93 0 0-213.043-71.33-240.27-66.635z" stroke-width=".176565" stroke="#000" fill="#FFF"/><path d="M247.572 517.032s9.18-.706 7.062 2.12-6.356 1.412-6.356 1.412l-.706-3.532zM301.954 541.752s9.18-.707 7.062 2.118-6.356 1.413-6.356 1.413l-.706-3.53zM286.416 541.045s9.18-.706 7.062 2.12-6.356 1.412-6.356 1.412l-.706-3.532zM118.026 520.175s8.916 2.33 5.985 4.31-6.48-.743-6.48-.743l.496-3.567zM121.557 503.225s8.917 2.33 5.986 4.308-6.48-.74-6.48-.74l.494-3.568zM108.844 495.456s8.917 2.33 5.986 4.308-6.48-.74-6.48-.74l.494-3.568z" fill="#000"/><path d="M249.69 627.915l-9.887 3.532c-3.532 0-23.307 6.356-33.195 24.012 0 0 21.895-16.95 43.082-27.545zM404.566 791.503c.25.44.346 1.183.862 1.218 1.162.072 3.34.6 3.118-.51-1.497-7.61-3.04-16.333-10.338-19.51-1.128-.496-3.674.228-3.805 1.8-.224 2.683-.43 5.067.115 7.645.53 2.525 4.34 2.525 5.96.088 1.65 2.95 2.414 6.215 4.088 9.27zM385.006 799.854c1.32 2.49 1.097 5.774 3.595 6.78 1.308.512 4.574-1.2 3.836-3.107-1.416-3.637-2.1-7.592-4.554-10.788-.353-.46.07-1.396-.21-1.98-1.05-2.153-3.072-3.46-5.558-2.877-1.97 3.885.058 7.645 2.746 10.665.24.265-.053.935.146 1.306zM315.083 790.69c-.19-.67-.258-1.483.033-2.048.938-1.818 2.338-3.796 1.743-5.614-.615-1.854-2.586-1.536-3.733-.53-2.004 1.748-2.09 4.98-3.31 7.38-.347.67-.257 1.695-1.036 2.384-.836.742-1.612 3.425-1.443 4.432.094.565-.23 18.045.162 17.586 1.092-1.29 6.478-18.487 6.6-20.058.1-1.29 1.393-2.1.983-3.53zM269.815 778.702c4.65-4.414 9.577-9.64 8.797-16.19-.205-1.732-3.34-.796-3.67.687-1.415 6.41-5.016 11.105-9.55 15.325-3.877 3.62-7.165 14.814-7.58 15.715 6.528-9.288 10.513-14.126 12.003-15.538zM245.848 768.18c.924-.672.39-1.538.774-2.12 1.682-2.578 3.98-4.768 4.01-7.84.006-.494-.66-1.04-1.252-.635-.49.317-1.093.547-1.284.777-3.584 4.325-6.056 9.04-8.604 14-.323.637-2.343 8.565-1.79 8.76.422.158 3.458-7.223 3.83-7.435 2.23-1.2 2.25-4.06 4.316-5.508zM275.393 802.68c.784-1.537 3.566-3.656 3.367-5.227-.208-1.642.618-4.185-.992-2.966-2.22 1.66-8.31 4.043-8.786 14.3-.046 1.008 5.205-3.742 6.41-6.108zM300.894 772.345c.706-1.183 1.957-.335 2.767-.812 1.145-.653 2.224-1.642 2.74-2.79 1.712-3.778 4.836-6.99 5.088-11.23-2.633-2.47-3.83 1.13-4.944 2.826-2.336-2.914-4.1.405-6.395 1.323-.125.053-.5-.565-.633-.512-2.078.778-3.28 2.685-5.04 4.062-.303.23-1.018-.088-1.278.16-1.152 1.06-2.87 1.64-3.364 2.842-1.96 4.767-7.504 8.475-10.836 21.788.673 1.607 7.967-11.724 8.827-12.96 1.476-2.12 1.684 2.93 3.937 1.766.09-.053.418.37.655.6.342-.494.726-.9 1.412-.706 0-.706-.237-1.695.118-1.96 2.184-1.73 2.036-3.62 3.413-5.81.81 1.396 2.682.125 3.53 1.413zM406.48 868.397s13.066-36.02 5.297-55.795c0 0 20.128 38.138 12.006 57.914 0 0-.706-18.363-7.768-27.19 0 0-7.063 22.6-9.535 25.07zM380.348 863.806s9.535-15.538-4.59-48.026c0 0-1.413 36.02-13.42 55.442 0 0 25.073-35.666 18.01-7.416zM362.692 860.275s-.353-35.313.353-40.61c0 0-6.71 29.31-24.72 46.26 0 0 25.426-21.188 24.367-5.65zM345.742 803.774s10.594 24.013-7.063 56.5c0 0 11.3-21.54 2.824-33.9 0 0 4.59-6.003 4.238-22.6zM311.84 859.57s-1.764-27.546 1.414-31.43c0 0 .353-11.3-.353-13.066 0 0 7.063-10.947 7.416 2.12 0 0 2.472 13.77 7.416 21.893 0 0 6.356 9.535 6.003 20.835 0 0-17.656-53.323-21.894-.353zM305.485 810.837s-11.653 19.07-14.832 52.616c0 0-2.472-10.947 4.238-36.372 0 0 7.417-27.19 10.595-16.243zM266.994 845.796s8.828-9.534 11.3-18.362c0 0 6.356-27.898-4.944-12.713 0 0 .353 14.126-14.125 27.192 0 0 8.475-4.237 7.77 3.884zM256.753 836.968s6.003-30.722 7.416-32.135c0 0 3.177-6.003-1.767-.353 0 0-15.538 33.9-22.6 45.554 0 0 14.125-16.244 16.95-13.066zM246.512 807.658s20.482-39.55-18.01 6.004c0 0 19.423-17.304 18.01-6.004zM219.32 781.88s8.476-33.194 13.067-32.84l2.825 2.824s-10.594 16.95-9.535 34.254c0 0-1.06-16.95-6.356-4.238zM802.515 761.752s-21.187-17.657-25.602-23.837c0 0 23.837 32.665 23.837 45.024 0 0 4.414-13.243 1.765-21.188zM812.226 722.907s-37.078-26.485-43.258-39.727c0 0 46.79 52.087 46.79 60.032 0 0 .883-15.89-3.532-20.305zM842.242 450.997s-21.187-14.125-23.836-10.594c0 0 18.54 11.477 22.954 26.485 0 0-2.65-15.89.882-15.89zM857.25 593.132l-30.898-21.188s33.547 30.016 34.43 37.08l-3.532-15.892z" fill="#CCC"/><path d="M167.323 553.405l38.844 8.387M256.047 839.44s-.883-6.18-16.774 12.36M265.758 848.268s3.53-11.476-7.946-3.53M361.103 863.276s2.648-19.422-17.657 3.532" stroke="#000" stroke-width="1.76565"/></g></svg>